<svg width="385" height="470" viewBox="0 0 385 470" fill="none" xmlns="http://www.w3.org/2000/svg">
<path d="M370.917 338.177C358.708 319.958 342 295.01 342 224V192C342 124.488 296.934 67.37 235.333 48.957V42.667C235.333 19.135 216.188 0 192.667 0C169.146 0 150 19.135 150 42.667V48.957C88.401 67.37 43.333 124.488 43.333 192V224C43.333 295.01 26.625 319.958 14.416 338.177C7.35302 348.729 0.666016 358.698 0.666016 373.333C0.666016 408.108 73.161 420.311 131.937 424.514C140.178 450.897 164.369 469.333 192.666 469.333C220.963 469.333 245.154 450.897 253.395 424.514C312.171 420.311 384.666 408.108 384.666 373.333C384.667 358.698 377.979 348.729 370.917 338.177ZM171.333 42.667C171.333 30.907 180.896 21.334 192.666 21.334C204.436 21.334 214 30.906 214 42.667V44.371C207.013 43.365 199.928 42.667 192.667 42.667C185.406 42.667 178.321 43.365 171.334 44.371V42.667H171.333ZM192.667 448C176.723 448 162.72 439.201 155.446 425.853C170.561 426.491 183.686 426.667 192.667 426.667C201.65 426.667 214.774 426.491 229.89 425.853C222.615 439.201 208.611 448 192.667 448ZM192.667 405.333C94.979 405.333 22 388.437 22 373.333C22 365.531 25.292 360.27 32.146 350.052C45.083 330.719 64.667 301.5 64.667 224V192C64.667 121.417 122.084 64 192.667 64C263.25 64 320.667 121.417 320.667 192V224C320.667 301.5 340.25 330.719 353.188 350.052C360.042 360.271 363.334 365.531 363.334 373.333C363.333 388.438 290.354 405.333 192.667 405.333Z" fill="white"/>
</svg>
