<svg width="491" height="491" viewBox="0 0 491 491" fill="none" xmlns="http://www.w3.org/2000/svg">
<path d="M330.667 192C336.555 192 341.334 187.221 341.334 181.333V53.333C341.333 23.936 317.419 0 288 0H53.333C23.915 0 0 23.936 0 53.333V437.333C0 466.73 23.915 490.666 53.333 490.666H288C317.419 490.666 341.333 466.73 341.333 437.333V309.333C341.333 303.445 336.554 298.666 330.666 298.666C324.778 298.666 320 303.445 320 309.333V437.333C320 454.976 305.643 469.333 288 469.333H53.333C35.69 469.333 21.333 454.976 21.333 437.333V53.333C21.333 35.69 35.69 21.333 53.333 21.333H288C305.643 21.333 320 35.69 320 53.333V181.333C320 187.221 324.779 192 330.667 192Z" fill="white"/>
<path d="M480 234.667H138.667C132.779 234.667 128 239.446 128 245.334C128 251.222 132.779 256 138.667 256H480C485.888 256 490.667 251.221 490.667 245.333C490.667 239.445 485.888 234.667 480 234.667Z" fill="white"/>
<path d="M487.531 237.824L423.531 173.824C419.371 169.664 412.608 169.664 408.448 173.824C404.288 177.984 404.288 184.747 408.448 188.907L464.896 245.355L408.448 301.803C404.288 305.963 404.288 312.726 408.448 316.886C410.539 318.955 413.269 320.001 416 320.001C418.731 320.001 421.461 318.956 423.531 316.908L487.531 252.908C491.691 248.747 491.691 241.984 487.531 237.824Z" fill="white"/>
</svg>
