<svg width="512" height="512" viewBox="0 0 512 512" fill="none" xmlns="http://www.w3.org/2000/svg">
<path d="M504.5 310.596C508.642 310.596 512 307.239 512 303.096V143.68C512 123.002 495.178 106.18 474.5 106.18H395.836V37.5C395.836 16.822 379.014 0 358.336 0H153.664C132.986 0 116.164 16.822 116.164 37.5V106.18H37.5C16.822 106.18 0 123.002 0 143.68V398.32C0 418.998 16.822 435.82 37.5 435.82H219.272V467H209.797C190.774 467 175.297 482.477 175.297 501.5C175.297 507.29 180.007 512 185.797 512H326.202C331.992 512 336.702 507.29 336.702 501.5C336.702 482.477 321.225 467 302.202 467H292.727V435.82H474.5C495.178 435.82 512 418.998 512 398.32V338.095C512 333.952 508.642 330.595 504.5 330.595C500.358 330.595 497 333.952 497 338.095V398.32C497 410.726 486.907 420.82 474.5 420.82H285.305C285.279 420.82 285.254 420.816 285.228 420.816C285.202 420.816 285.177 420.82 285.151 420.82H226.85C226.824 420.82 226.799 420.816 226.773 420.816C226.747 420.816 226.722 420.82 226.696 420.82H37.5C25.093 420.82 15 410.726 15 398.32V143.68C15 131.274 25.093 121.18 37.5 121.18H116.164V136.18H40.5C34.71 136.18 30 140.89 30 146.68V398.32C30 402.463 33.358 405.82 37.5 405.82H471.5C477.29 405.82 482 401.11 482 395.32V146.68C482 140.89 477.29 136.18 471.5 136.18H395.836V121.18H474.5C486.907 121.18 497 131.274 497 143.68V303.096C497 307.238 500.358 310.596 504.5 310.596ZM234.272 435.82H277.728V467H234.272V435.82ZM302.203 482C311.407 482 319.142 488.409 321.179 497H190.821C192.858 488.409 200.593 482 209.797 482H302.203ZM116.164 390.82H45V151.18H116.164V390.82ZM380.836 390.82H131.164V37.5C131.164 25.094 141.257 15 153.664 15H358.336C370.743 15 380.836 25.094 380.836 37.5V390.82ZM467 151.18V390.82H395.836V151.18H467ZM342.357 271H169.643C165.501 271 162.143 274.357 162.143 278.5C162.143 282.643 165.501 286 169.643 286H342.357C346.499 286 349.857 282.643 349.857 278.5C349.857 274.357 346.499 271 342.357 271ZM256 45C235.139 45 215.287 51.604 198.59 64.1C195.274 66.581 194.597 71.283 197.079 74.598C199.561 77.914 204.261 78.592 207.578 76.11C221.66 65.57 238.404 60 256 60C300.664 60 337 96.337 337 141C337 185.663 300.664 222 256 222C211.336 222 175 185.663 175 141C175 126.524 178.882 112.31 186.227 99.894C188.336 96.33 187.156 91.73 183.591 89.621C180.026 87.513 175.426 88.692 173.317 92.258C164.605 106.983 160 123.839 160 141C160 193.935 203.065 237 256 237C308.935 237 352 193.935 352 141C352 88.065 308.935 45 256 45V45ZM221.444 179.605C231.895 190.153 249.825 190.228 260.332 179.602L307.171 132.762C316.162 123.845 315.678 108.65 306.39 100.198C297.498 92.106 283.731 92.565 275.052 101.243L240.887 135.408L236.647 131.168C228.015 122.449 213.483 122.51 204.826 131.167C196.054 139.939 196.053 154.213 204.826 162.986L221.444 179.605ZM215.434 141.774C218.32 138.888 223.168 138.872 226.041 141.773L233.462 149.195C237.467 153.242 244.294 153.258 248.312 149.197L285.659 111.85C288.614 108.894 293.387 108.644 296.296 111.291C299.415 114.129 299.572 119.181 296.566 122.154L249.727 168.994C247.372 171.348 244.233 172.645 240.888 172.645C237.543 172.645 234.404 171.349 232.051 168.997L215.435 152.38C212.51 149.456 212.51 144.698 215.434 141.774V141.774ZM342.357 316H169.643C165.501 316 162.143 319.357 162.143 323.5C162.143 327.643 165.501 331 169.643 331H342.357C346.499 331 349.857 327.643 349.857 323.5C349.857 319.357 346.499 316 342.357 316Z" fill="black"/>
</svg>
