<svg xmlns="http://www.w3.org/2000/svg" width="399" height="511" fill="none" viewBox="0 0 399 511"><path fill="#fff" d="M359.5 40H295V39.5C295 30.953 288.047 24 279.5 24H239V23.5C239 10.542 228.458 0 215.5 0H183.5C170.542 0 160 10.542 160 23.5V24H119.5C110.953 24 104 30.953 104 39.5V40H39.5C17.72 40 0 57.72 0 79.5V471.5C0 493.28 17.72 511 39.5 511H359.5C381.28 511 399 493.28 399 471.5V79.5C399 57.72 381.28 40 359.5 40ZM287.498 87H351.5C351.776 87 352 87.224 352 87.5V463.5C352 463.776 351.776 464 351.5 464H47.5C47.224 464 47 463.776 47 463.5V87.5C47 87.224 47.224 87 47.5 87H111.501C111.59 87 111.676 86.99 111.764 86.987C118.967 96.695 130.51 103 143.5 103H255.5C268.49 103 280.033 96.695 287.236 86.987C287.324 86.99 287.41 87 287.498 87ZM175 23.5C175 18.813 178.813 15 183.5 15H215.5C220.187 15 224 18.813 224 23.5V24H175V23.5ZM119 39.5C119 39.224 119.224 39 119.5 39H279.5C279.776 39 280 39.224 280 39.5V47.442C280 47.462 279.997 47.481 279.997 47.5C279.997 47.519 280 47.539 280 47.558V63.5C280 77.009 269.009 88 255.5 88H143.5C129.991 88 119 77.009 119 63.5V39.5ZM384 471.5C384 485.009 373.009 496 359.5 496H39.5C25.991 496 15 485.009 15 471.5V79.5C15 65.991 25.991 55 39.5 55H104V63.5C104 66.418 104.328 69.26 104.931 72H47.5C38.953 72 32 78.953 32 87.5V463.5C32 472.047 38.953 479 47.5 479H351.5C360.047 479 367 472.047 367 463.5V87.5C367 78.953 360.047 72 351.5 72H294.069C294.673 69.26 295 66.418 295 63.5V55H359.5C373.009 55 384 65.991 384 79.5V471.5Z"/><path fill="#fff" d="M88.5 215H150.5C155.187 215 159 211.187 159 206.5V144.5C159 139.813 155.187 136 150.5 136H88.5C83.813 136 80 139.813 80 144.5V206.5C80 211.187 83.813 215 88.5 215ZM95 151H144V200H95V151Z"/><path fill="#fff" d="M150.5 344H88.5C83.813 344 80 347.813 80 352.5V414.5C80 419.187 83.813 423 88.5 423H150.5C155.187 423 159 419.187 159 414.5V352.5C159 347.813 155.187 344 150.5 344ZM144 408H95V359H144V408Z"/><path fill="#fff" d="M150.5 240H88.5C83.813 240 80 243.813 80 248.5V310.5C80 315.187 83.813 319 88.5 319H150.5C155.187 319 159 315.187 159 310.5V248.5C159 243.813 155.187 240 150.5 240ZM144 304H95V255H144V304Z"/><path fill="#fff" d="M183.5 159H207.5C211.642 159 215 155.642 215 151.5C215 147.358 211.642 144 207.5 144H183.5C179.358 144 176 147.358 176 151.5C176 155.642 179.358 159 183.5 159Z"/><path fill="#fff" d="M176 183.5C176 187.642 179.358 191 183.5 191H303.5C307.642 191 311 187.642 311 183.5C311 179.358 307.642 176 303.5 176H183.5C179.358 176 176 179.358 176 183.5Z"/><path fill="#fff" d="M183.5 271H263.5C267.642 271 271 267.642 271 263.5C271 259.358 267.642 256 263.5 256H183.5C179.358 256 176 259.358 176 263.5C176 267.642 179.358 271 183.5 271Z"/><path fill="#fff" d="M303.5 288H183.5C179.358 288 176 291.358 176 295.5C176 299.642 179.358 303 183.5 303H303.5C307.642 303 311 299.642 311 295.5C311 291.358 307.642 288 303.5 288Z"/><path fill="#fff" d="M183.5 375H215.5C219.642 375 223 371.642 223 367.5C223 363.358 219.642 360 215.5 360H183.5C179.358 360 176 363.358 176 367.5C176 371.642 179.358 375 183.5 375Z"/><path fill="#fff" d="M303.5 392H183.5C179.358 392 176 395.358 176 399.5C176 403.642 179.358 407 183.5 407H303.5C307.642 407 311 403.642 311 399.5C311 395.358 307.642 392 303.5 392Z"/></svg>