<svg width="2438" height="476" viewBox="0 0 2438 476" fill="none" xmlns="http://www.w3.org/2000/svg">
<g clip-path="url(#clip0)">
<path d="M350.717 304.486H290.016C289.053 328.575 288.089 357.482 286.162 384.462H338.191C343.972 360.373 348.79 332.429 350.717 304.486ZM279.418 391.207H253.403V449.02H270.746C273.637 434.567 276.527 415.296 279.418 391.207ZM311.213 449.02C321.812 434.567 329.52 414.332 336.264 391.207H285.199C283.272 412.405 280.381 432.64 276.527 449.02H311.213ZM396.001 384.462C406.6 360.373 414.308 332.429 418.162 304.486H357.461C355.534 332.429 350.717 360.373 344.936 384.462H396.001ZM468.264 298.705C471.155 284.251 473.082 269.798 473.082 255.344H427.797C427.797 269.798 426.833 284.251 424.906 298.705H468.264ZM284.235 304.486H253.403V384.462H279.418C281.345 362.3 283.272 335.32 284.235 304.486ZM284.235 254.381H252.439V298.705H283.272C284.235 284.251 284.235 269.798 284.235 254.381ZM352.644 254.381H290.016C290.016 263.053 290.016 278.47 289.053 297.741H349.753C352.644 284.251 352.644 268.834 352.644 254.381ZM429.724 384.462C447.067 361.336 459.593 333.393 467.301 304.486H423.943C420.089 332.429 413.344 360.373 402.746 384.462H429.724ZM418.162 298.705C420.089 284.251 421.052 269.798 421.052 255.344H358.425C358.425 269.798 357.461 284.251 356.498 298.705H418.162ZM253.403 474.073C256.293 474.073 258.22 474.073 261.111 474.073C264.001 471.182 266.892 465.401 269.783 454.802H253.403V474.073ZM306.396 454.802H275.564C273.637 462.51 270.746 469.255 268.819 474.073C274.6 474.073 279.418 473.109 284.235 472.146C291.943 468.292 299.651 462.51 306.396 454.802ZM300.615 469.255C315.067 466.365 328.556 461.547 342.045 455.765C343.009 455.765 343.009 454.802 343.972 454.802H315.067C309.286 460.583 305.432 465.401 300.615 469.255ZM342.045 391.207C335.301 413.369 327.593 433.603 317.958 449.02H350.717C368.06 434.567 382.512 414.332 393.111 391.207H342.045ZM365.169 443.239C388.293 429.749 408.527 411.441 424.906 391.207H399.855C391.184 411.441 379.622 428.786 365.169 443.239Z" fill="#8C989F"/>
<path d="M123.328 172.479H184.993C185.956 148.389 186.92 118.519 188.847 91.5393H135.854C130.073 115.628 125.255 143.572 123.328 172.479ZM195.591 84.7943H221.606V26.9806H203.299C200.409 41.434 197.518 60.7052 195.591 84.7943ZM162.832 26.9806C152.233 41.434 143.562 61.6688 137.781 84.7943H189.81C191.737 62.6324 194.628 42.3976 198.482 26.9806H162.832V26.9806ZM77.0802 91.5393C66.4817 116.592 58.7737 144.535 54.9197 172.479H116.584C118.511 143.572 123.328 116.592 130.073 91.5393H77.0802V91.5393ZM4.81752 179.223C1.92701 192.713 0 208.13 0 222.584H46.2481C46.2481 208.13 47.2116 192.713 49.1387 178.26H4.81752V179.223ZM190.774 172.479H221.606V91.5393H194.628C192.701 114.665 191.737 141.645 190.774 172.479ZM189.81 222.584H221.606V178.26H189.81C189.81 192.713 189.81 207.167 189.81 222.584ZM121.401 222.584H184.029C184.029 213.912 184.029 198.495 184.993 178.26H123.328C121.401 193.677 121.401 208.13 121.401 222.584ZM43.3576 91.5393C26.0146 115.628 12.5255 142.608 5.78102 172.479H49.1387C52.9927 143.572 59.7372 116.592 70.3357 91.5393H43.3576V91.5393ZM54.9197 179.223C52.9927 193.677 52.0292 209.094 52.0292 223.547H114.657C114.657 209.094 115.62 193.677 116.584 179.223H54.9197ZM221.606 0.964355C218.715 0.964355 216.788 0.964355 213.898 0.964355C211.007 3.85504 208.117 9.63642 205.226 20.2356H221.606V0.964355ZM167.65 21.1992H198.482C200.409 13.4907 203.299 6.74573 206.19 1.92792C200.409 1.92792 195.591 2.89148 189.81 3.85504C182.102 6.74573 174.394 12.5271 167.65 21.1992ZM174.394 6.74573C159.942 9.63642 146.452 14.4542 132.963 20.2356C132 20.2356 132 21.1992 131.036 21.1992H159.942C164.759 15.4178 169.577 10.6 174.394 6.74573ZM132 84.7943C138.744 61.6688 146.452 42.3976 157.051 26.9806H124.292C106.949 41.434 92.4963 61.6688 80.9343 84.7943H132ZM108.876 32.7619C84.7883 46.2518 64.5547 64.5595 48.1752 84.7943H73.2262C82.8613 64.5595 94.4233 47.2154 108.876 32.7619Z" fill="#8C989F"/>
<path d="M361.313 132.008C363.24 131.045 365.167 129.118 364.203 126.227C363.24 124.3 361.313 123.336 358.422 123.336C356.495 124.3 355.532 126.227 355.532 129.118C356.495 131.045 359.386 132.008 361.313 132.008Z" fill="#8C989F"/>
<path d="M316.03 152.243C308.322 150.316 300.614 157.061 298.687 167.66C296.76 178.259 300.614 187.895 308.322 189.822C316.03 191.749 323.738 185.004 325.665 174.405C327.592 163.806 323.738 154.17 316.03 152.243Z" fill="#8C989F"/>
<path d="M346.861 162.842C350.715 163.805 355.533 165.732 359.387 165.732C368.058 166.696 375.766 166.696 383.474 163.805C387.328 162.842 390.219 160.914 393.109 158.987C394.073 158.024 395.036 158.024 396.963 157.06C390.219 153.206 364.204 137.789 361.314 136.825C360.35 138.753 349.752 157.06 346.861 162.842Z" fill="#8C989F"/>
<path d="M383.474 67.449C387.328 66.4854 390.219 64.5583 393.109 62.6312C394.073 61.6676 395.036 61.6676 396.963 60.7041C390.219 56.8498 364.204 41.4328 361.314 40.4692C359.387 42.3964 349.752 60.7041 346.861 66.4854C350.715 67.449 355.533 69.3761 359.387 69.3761C368.058 70.3397 375.766 69.3761 383.474 67.449Z" fill="#8C989F"/>
<path d="M253.399 0.964355V222.584H475.005V0.964355H253.399V0.964355ZM343.005 64.5595L358.421 38.5433C355.531 37.5797 353.604 36.6162 352.64 33.7255C350.713 29.8712 353.604 25.0534 357.458 23.1263C361.312 22.1627 366.129 24.0899 368.056 27.9441C369.02 31.7984 368.056 35.6526 365.166 37.5797L401.779 58.7781C402.742 58.7781 403.706 57.8146 404.669 57.8146C408.523 57.8146 413.341 58.7781 415.268 62.6324C417.195 66.4866 417.195 72.268 414.304 75.1587C412.377 77.0858 410.45 79.0129 408.523 80.9401C409.487 78.0494 408.523 75.1587 408.523 73.2316C406.596 75.1587 405.633 76.1223 404.669 77.0858V78.0494C404.669 80.9401 403.706 83.8308 401.779 87.685C398.888 89.6121 395.998 91.5393 392.144 93.4664C394.071 90.5757 395.034 86.7214 395.034 82.8672C394.071 83.8308 392.144 84.7943 390.217 84.7943C389.253 88.6486 386.363 93.4664 382.509 96.3571C378.655 97.3206 374.801 99.2478 370.947 100.211C373.837 97.3206 376.728 92.5028 377.691 88.6486C375.764 88.6486 374.801 89.6121 372.874 89.6121C371.91 94.4299 368.056 99.2478 363.239 102.138C359.385 103.102 356.494 103.102 352.64 103.102C356.494 99.2478 359.385 94.4299 360.348 89.6121C357.458 89.6121 356.494 90.5757 355.531 92.5028C354.567 94.4299 353.604 96.3571 351.677 98.2842C349.75 100.211 347.823 103.102 344.932 103.102C343.969 103.102 342.042 103.102 341.078 103.102C338.188 103.102 335.297 103.102 332.407 102.138C343.969 93.4664 349.75 80.9401 343.005 64.5595ZM294.83 70.3409C296.757 62.6324 300.611 56.851 305.429 52.9967C309.283 51.0696 313.137 50.1061 316.991 51.0696C318.918 52.0332 320.845 52.9967 322.772 53.9603C327.589 57.8146 332.407 59.7417 337.224 61.6688C339.151 62.6324 340.115 66.4866 340.115 67.4502C341.078 69.3773 341.078 72.268 342.042 75.1587C342.042 79.9765 341.078 84.7943 339.151 88.6486C338.188 90.5757 336.261 92.5028 335.297 94.4299C333.37 96.3571 332.407 98.2842 329.516 99.2478C327.589 100.211 325.662 101.175 323.735 100.211C318.918 99.2478 315.064 98.2842 310.246 97.3206C309.283 97.3206 308.319 97.3206 307.356 97.3206C297.721 95.3935 291.94 82.8672 294.83 70.3409ZM329.516 196.568C327.589 197.531 325.662 198.495 323.735 197.531C318.918 196.568 315.064 195.604 310.246 194.64C309.283 194.64 308.319 194.64 307.356 194.64C297.721 191.75 291.94 180.187 294.83 166.697C296.757 158.989 300.611 153.207 305.429 149.353C309.283 147.426 313.137 146.462 316.991 147.426C318.918 148.389 320.845 149.353 322.772 150.317C327.589 153.207 332.407 156.098 337.224 158.025C339.151 158.989 340.115 162.843 340.115 163.806C341.078 165.734 341.078 168.624 342.042 170.551C342.042 175.369 341.078 180.187 339.151 184.041C338.188 185.968 336.261 187.896 335.297 189.823C333.37 193.677 331.443 195.604 329.516 196.568ZM414.304 172.479C412.377 174.406 410.45 176.333 408.523 178.26C409.487 175.369 408.523 173.442 408.523 170.551C407.56 171.515 406.596 172.479 405.633 173.442V174.406C405.633 177.296 404.669 180.187 402.742 184.041C399.852 185.968 396.961 187.896 393.107 189.823C395.034 186.932 395.998 183.078 396.961 180.187C395.998 181.151 394.071 182.114 392.144 182.114C391.18 185.968 388.29 190.786 384.436 193.677C380.582 195.604 376.728 196.568 372.874 197.531C375.764 194.64 378.655 189.823 379.618 185.968C377.691 185.968 376.728 186.932 374.801 186.932C373.837 191.75 369.983 196.568 365.166 199.458C361.312 200.422 358.421 200.422 354.567 200.422C358.421 196.568 361.312 192.713 362.275 186.932C359.385 186.932 358.421 187.896 357.458 189.823C356.494 191.75 355.531 193.677 353.604 195.604C351.677 197.531 349.75 200.422 346.859 200.422C345.896 200.422 343.969 200.422 343.005 200.422C340.115 200.422 337.224 200.422 334.334 199.458C344.932 190.786 350.713 177.296 343.969 160.916L359.385 134.9C356.494 133.936 354.567 132.972 353.604 130.082C351.677 126.228 354.567 121.41 358.421 119.483C362.275 118.519 367.093 120.446 369.02 124.3C369.983 128.155 369.02 132.009 366.129 133.936L402.742 155.134C403.706 155.134 404.669 154.171 405.633 154.171C409.487 154.171 414.304 155.134 416.231 158.989C417.195 162.843 417.195 169.588 414.304 172.479ZM420.085 162.843C420.085 159.952 419.122 158.025 417.195 156.098C414.304 152.244 410.45 150.317 405.633 150.317C419.122 137.79 424.903 122.373 429.72 123.337C432.611 124.3 431.647 143.572 420.085 162.843ZM420.085 66.4866C420.085 63.5959 419.122 61.6688 417.195 59.7417C414.304 55.8874 410.45 53.9603 405.633 53.9603C419.122 41.434 424.903 26.017 429.72 26.9806C432.611 27.9441 431.647 47.2154 420.085 66.4866Z" fill="#8C989F"/>
<path d="M308.322 93.4649C316.03 95.392 323.738 88.6471 325.665 78.0479C327.592 67.4487 323.738 57.8131 316.03 55.886C308.322 53.9589 300.614 60.7038 298.687 71.303C296.76 81.9022 300.614 91.5378 308.322 93.4649Z" fill="#8C989F"/>
<path d="M361.315 34.6878C363.242 33.7242 365.169 31.7971 364.206 28.9064C363.242 26.9793 361.315 26.0157 358.425 26.0157C356.498 27.9429 355.534 29.87 356.498 31.7971C356.498 34.6878 359.388 35.6514 361.315 34.6878Z" fill="#8C989F"/>
<path d="M62.6271 315.085C58.7731 317.012 55.8826 317.976 52.9921 317.976H42.3936V322.793H52.9921C55.8826 322.793 59.7366 320.866 64.5541 318.939C70.3351 316.048 76.1162 314.121 81.8972 314.121C90.5687 314.121 97.3132 317.976 98.2767 317.976V313.158C95.3862 312.194 88.6417 309.303 81.8972 309.303C74.1891 310.267 67.4446 313.158 62.6271 315.085Z" fill="#8C989F"/>
<path d="M161.869 407.587C156.088 404.696 149.344 401.805 142.599 401.805C135.855 401.805 130.074 403.732 126.22 405.659V410.477C127.183 410.477 133.928 406.623 142.599 406.623C149.344 406.623 155.125 409.514 159.942 411.441C163.796 413.368 167.65 415.295 171.504 415.295H182.103V410.477H171.504C169.577 410.477 165.723 408.55 161.869 407.587Z" fill="#8C989F"/>
<path d="M62.6271 334.356C58.7731 336.283 55.8826 337.247 52.9921 337.247H42.3936V342.065H52.9921C55.8826 342.065 59.7366 340.137 64.5541 338.21C70.3351 336.283 76.1162 333.393 81.8972 333.393C90.5687 333.393 97.3132 337.247 98.2767 337.247V332.429C95.3862 331.465 88.6417 328.575 81.8972 328.575C74.1891 328.575 67.4446 331.465 62.6271 334.356Z" fill="#8C989F"/>
<path d="M62.6271 407.587C58.7731 409.514 55.8826 410.478 52.9921 410.478H42.3936V415.295H52.9921C55.8826 415.295 59.7366 413.368 64.5541 411.441C70.3351 409.514 76.1162 406.623 81.8972 406.623C90.5687 406.623 97.3132 410.478 98.2767 410.478V404.696C95.3862 403.733 88.6417 400.842 81.8972 400.842C74.1891 401.805 67.4446 404.696 62.6271 407.587Z" fill="#8C989F"/>
<path d="M62.6271 351.701C58.7731 353.628 55.8826 354.591 52.9921 354.591H42.3936V359.409H52.9921C55.8826 359.409 59.7366 357.482 64.5541 355.555C70.3351 352.664 76.1162 350.737 81.8972 350.737C90.5687 350.737 97.3132 354.591 98.2767 354.591V349.773C95.3862 348.81 88.6417 345.919 81.8972 345.919C74.1891 346.883 67.4446 349.773 62.6271 351.701Z" fill="#8C989F"/>
<path d="M62.6271 390.243C58.7731 392.17 55.8826 393.134 52.9921 393.134H42.3936V397.952H52.9921C55.8826 397.952 59.7366 396.024 64.5541 394.097C70.3351 391.207 76.1162 389.279 81.8972 389.279C90.5687 389.279 97.3132 393.134 98.2767 393.134V388.316C95.3862 387.352 88.6417 384.462 81.8972 384.462C74.1891 384.462 67.4446 387.352 62.6271 390.243Z" fill="#8C989F"/>
<path d="M161.869 390.243C156.088 387.352 149.344 384.462 142.599 384.462C135.855 384.462 130.074 386.389 126.22 388.316V393.134C127.183 393.134 133.928 389.279 142.599 389.279C149.344 389.279 155.125 392.17 159.942 394.097C163.796 396.024 167.65 397.952 171.504 397.952H182.103V393.134H171.504C169.577 393.134 165.723 391.207 161.869 390.243Z" fill="#8C989F"/>
<path d="M62.6271 370.972C58.7731 372.899 55.8826 373.862 52.9921 373.862H42.3936V378.68H52.9921C55.8826 378.68 59.7366 376.753 64.5541 374.826C70.3351 371.935 76.1162 370.008 81.8972 370.008C90.5687 370.008 97.3132 373.862 98.2767 373.862V369.045C95.3862 368.081 88.6417 365.19 81.8972 365.19C74.1891 365.19 67.4446 368.081 62.6271 370.972Z" fill="#8C989F"/>
<path d="M161.869 334.356C156.088 331.465 149.344 328.575 142.599 328.575C135.855 328.575 130.074 330.502 126.22 332.429V337.247C127.183 337.247 133.928 333.393 142.599 333.393C149.344 333.393 155.125 336.283 159.942 338.21C163.796 340.137 167.65 342.065 171.504 342.065H182.103V337.247H171.504C169.577 337.247 165.723 335.32 161.869 334.356Z" fill="#8C989F"/>
<path d="M161.869 370.972C156.088 368.081 149.344 365.19 142.599 365.19C135.855 365.19 130.074 367.118 126.22 369.045V373.862C127.183 373.862 133.928 370.008 142.599 370.008C149.344 370.008 155.125 372.899 159.942 374.826C163.796 376.753 167.65 378.68 171.504 378.68H182.103V373.862H171.504C169.577 373.862 165.723 371.935 161.869 370.972Z" fill="#8C989F"/>
<path d="M0 254.381V476H221.606V254.381H0ZM32.7591 407.587H21.1971C18.3066 407.587 16.3796 405.66 16.3796 402.769C16.3796 399.879 18.3066 397.952 21.1971 397.952H32.7591V407.587V407.587ZM32.7591 382.535H21.1971C18.3066 382.535 16.3796 380.607 16.3796 377.717C16.3796 374.826 18.3066 372.899 21.1971 372.899H32.7591V382.535V382.535ZM32.7591 359.409H21.1971C18.3066 359.409 16.3796 357.482 16.3796 354.591C16.3796 351.701 18.3066 349.773 21.1971 349.773H32.7591V359.409V359.409ZM32.7591 333.393H21.1971C18.3066 333.393 16.3796 331.466 16.3796 328.575C16.3796 325.684 18.3066 323.757 21.1971 323.757H32.7591V333.393V333.393ZM109.839 431.676C105.022 428.786 94.4233 422.041 86.7153 422.041C73.2262 422.041 67.4452 430.713 54.9197 430.713C46.2481 430.713 35.6496 429.749 35.6496 429.749V301.595C35.6496 301.595 46.2481 302.559 54.9197 302.559C63.5912 302.559 71.2992 294.85 86.7153 294.85C94.4233 294.85 105.985 300.632 109.839 303.522V431.676ZM169.577 430.713C157.051 430.713 157.051 422.041 136.817 422.041C129.109 422.041 117.547 428.786 112.73 431.676V303.522C117.547 300.632 128.146 294.85 135.854 294.85C149.343 294.85 158.978 302.559 166.686 302.559C175.358 302.559 186.92 301.595 186.92 301.595V429.749C188.847 429.749 178.248 430.713 169.577 430.713ZM201.372 395.061H190.774V384.462H201.372C204.263 384.462 206.19 386.389 206.19 389.28C207.153 392.17 204.263 395.061 201.372 395.061ZM201.372 370.972H190.774V360.373H201.372C204.263 360.373 206.19 362.3 206.19 365.19C207.153 368.081 204.263 370.972 201.372 370.972ZM201.372 345.919H190.774V335.32H201.372C204.263 335.32 206.19 337.247 206.19 340.138C207.153 343.992 204.263 345.919 201.372 345.919Z" fill="#8C989F"/>
<path d="M161.869 315.085C156.088 312.194 149.344 309.303 142.599 309.303C135.855 309.303 130.074 311.231 126.22 313.158V317.976C127.183 317.976 133.928 314.121 142.599 314.121C149.344 314.121 155.125 317.012 159.942 318.939C163.796 320.866 167.65 322.793 171.504 322.793H182.103V317.976H171.504C169.577 318.939 165.723 317.012 161.869 315.085Z" fill="#8C989F"/>
<path d="M161.869 351.701C156.088 348.81 149.344 345.919 142.599 345.919C135.855 345.919 130.074 347.846 126.22 349.773V354.591C127.183 354.591 133.928 350.737 142.599 350.737C149.344 350.737 155.125 353.628 159.942 355.555C163.796 357.482 167.65 359.409 171.504 359.409H182.103V354.591H171.504C169.577 355.555 165.723 353.628 161.869 351.701Z" fill="#8C989F"/>
<path d="M712.031 92.5015C712.031 99.2465 711.067 105.991 710.103 112.736C708.176 119.481 706.25 125.263 702.396 130.08C698.542 134.898 693.724 138.753 687.943 141.643C682.162 144.534 674.454 146.461 665.782 146.461C657.111 146.461 649.403 144.534 643.622 141.643C637.841 138.753 632.06 134.898 629.169 130.08C625.315 125.263 622.425 119.481 621.461 112.736C619.534 105.991 618.571 99.2465 618.571 92.5015V11.5623H631.096V89.6108C631.096 94.4286 631.096 99.2465 632.06 105.028C633.023 110.809 634.95 115.627 636.877 119.481C639.768 124.299 642.658 128.153 647.476 131.044C652.293 133.935 658.074 135.862 665.782 135.862C673.49 135.862 679.271 133.935 684.089 131.044C688.906 128.153 692.76 124.299 694.687 119.481C697.578 114.663 698.541 109.846 699.505 105.028C700.468 99.2465 700.468 94.4286 700.468 89.6108V11.5623H712.994V92.5015H712.031Z" fill="#8C989F"/>
<path d="M755.386 11.5623H771.765L851.736 126.226V11.5623H864.262V142.607H847.882L767.911 27.9428V142.607H755.386V11.5623Z" fill="#8C989F"/>
<path d="M909.546 11.5623H921.108V142.607H909.546V11.5623Z" fill="#8C989F"/>
<path d="M954.832 11.5623H967.358L1009.75 126.226L1053.11 11.5623H1065.64L1015.53 142.607H1003.97L954.832 11.5623Z" fill="#8C989F"/>
<path d="M1098.39 11.5623H1178.36V22.1614H1109.96V69.376H1174.51V79.9752H1109.96V132.008H1181.25V142.607H1098.39V11.5623Z" fill="#8C989F"/>
<path d="M1223.65 11.5623H1258.34C1260.26 11.5623 1262.19 11.5623 1265.08 11.5623C1267.97 11.5623 1270.86 12.5258 1274.71 12.5258C1278.57 13.4894 1281.46 14.4529 1285.31 15.4165C1289.17 16.3801 1292.06 18.3072 1294.95 21.1979C1297.84 24.0886 1299.77 26.9793 1301.69 30.8335C1303.62 34.6878 1304.58 39.5056 1304.58 45.287C1304.58 52.0319 1303.62 56.8497 1301.69 60.704C1299.77 64.5582 1296.88 68.4125 1293.02 70.3396C1290.13 73.2303 1286.28 75.1574 1282.42 76.121C1278.57 77.0845 1274.71 78.0481 1270.86 79.0117L1309.4 142.607H1295.91L1259.3 79.9752H1236.17V142.607H1223.65V11.5623ZM1236.17 69.376H1262.19C1268.93 69.376 1273.75 68.4125 1277.61 66.4853C1281.46 64.5582 1284.35 62.6311 1287.24 60.704C1289.17 58.7768 1291.09 55.8861 1292.06 52.9955C1293.02 50.1048 1293.02 48.1776 1293.02 45.287C1293.02 43.3598 1293.02 40.4691 1292.06 37.5785C1291.09 34.6878 1290.13 32.7606 1287.24 29.8699C1285.31 27.9428 1281.46 25.0521 1277.61 24.0886C1273.75 22.1614 1267.97 21.1979 1262.19 21.1979H1236.17V69.376Z" fill="#8C989F"/>
<path d="M1351.79 118.517C1354.68 124.299 1359.5 128.153 1364.32 131.044C1369.14 133.934 1374.92 134.898 1381.66 134.898C1385.52 134.898 1389.37 133.934 1393.22 132.971C1397.08 132.007 1399.97 130.08 1402.86 128.153C1405.75 126.226 1407.68 123.335 1409.6 120.444C1411.53 117.554 1411.53 113.699 1411.53 109.845C1411.53 105.027 1410.57 101.173 1408.64 98.2825C1406.71 95.3918 1403.82 92.5011 1400.93 90.574C1398.04 88.6468 1394.19 86.7197 1390.33 85.7561C1386.48 84.7926 1381.66 82.8655 1377.81 81.9019C1373.95 80.9383 1369.14 79.0112 1365.28 77.0841C1361.43 75.157 1357.58 73.2298 1354.68 70.3391C1351.79 67.4485 1348.9 63.5942 1346.98 59.74C1345.05 55.8857 1344.09 50.1043 1344.09 44.323C1344.09 38.5416 1345.05 33.7238 1347.94 28.906C1349.87 24.0881 1353.72 20.2339 1357.58 17.3432C1361.43 14.4525 1366.25 11.5618 1371.06 10.5983C1375.88 8.67114 1381.66 8.67114 1387.44 8.67114C1394.19 8.67114 1400.93 9.6347 1407.68 12.5254C1413.46 15.4161 1419.24 19.2703 1424.06 25.0517L1413.46 32.7602C1410.57 27.9424 1406.71 25.0517 1402.86 23.1246C1399.01 21.1975 1394.19 20.2339 1388.41 20.2339C1384.55 20.2339 1380.7 21.1975 1376.85 22.161C1372.99 23.1246 1370.1 25.0517 1367.21 26.9788C1364.32 28.906 1362.39 31.7966 1360.47 34.6873C1358.54 37.578 1358.54 41.4323 1358.54 45.2865C1358.54 52.0315 1360.47 56.8493 1363.36 60.7035C1366.25 64.5578 1371.06 67.4485 1375.88 69.3756C1380.7 71.3027 1386.48 73.2298 1392.26 75.157C1398.04 77.0841 1403.82 79.0112 1408.64 80.9383C1413.46 83.829 1418.28 86.7197 1421.17 91.5375C1424.06 96.3553 1425.98 102.137 1425.98 110.809C1425.98 116.59 1425.02 122.372 1423.09 126.226C1421.17 131.044 1418.28 134.898 1414.42 137.789C1410.57 140.679 1406.71 143.57 1400.93 144.533C1396.12 146.461 1391.3 147.424 1385.52 147.424C1376.85 147.424 1369.14 145.497 1361.43 142.606C1353.72 139.716 1347.94 134.898 1343.12 127.189L1351.79 118.517Z" fill="#8C989F"/>
<path d="M1464.52 11.5623H1477.05V142.607H1464.52V11.5623Z" fill="#8C989F"/>
<path d="M1557.02 22.1614H1511.74V11.5623H1614.83V22.1614H1569.55V142.607H1557.02V22.1614Z" fill="#8C989F"/>
<path d="M1679.38 85.7566L1631.21 11.5623H1645.66L1685.17 73.2303L1726.6 11.5623H1740.08L1691.91 85.7566V142.607H1679.38V85.7566Z" fill="#8C989F"/>
<path d="M1798.86 100.21C1798.86 93.4651 1799.83 87.6837 1801.75 81.9024C1803.68 76.121 1807.53 71.3032 1811.39 67.4489C1815.24 63.5947 1820.06 60.704 1825.84 57.8133C1831.62 55.8862 1837.4 54.9226 1844.15 54.9226C1850.89 54.9226 1856.67 55.8862 1862.45 57.8133C1868.23 59.7404 1873.05 63.5947 1876.91 67.4489C1880.76 71.3032 1883.65 76.121 1886.54 81.9024C1888.47 87.6837 1889.43 93.4651 1889.43 100.21C1889.43 106.955 1888.47 112.736 1886.54 118.518C1884.61 124.299 1880.76 129.117 1876.91 132.971C1873.05 136.825 1868.23 139.716 1862.45 142.607C1856.67 144.534 1850.89 145.498 1844.15 145.498C1837.4 145.498 1831.62 144.534 1825.84 142.607C1820.06 140.68 1815.24 136.825 1811.39 132.971C1807.53 129.117 1804.64 124.299 1801.75 118.518C1799.83 112.736 1798.86 105.991 1798.86 100.21ZM1809.46 100.21C1809.46 105.028 1810.42 109.846 1811.39 113.7C1813.31 117.554 1815.24 121.408 1818.13 125.263C1821.02 128.153 1824.88 131.044 1828.73 132.971C1832.58 134.898 1837.4 135.862 1843.18 135.862C1848 135.862 1852.82 134.898 1857.64 132.971C1861.49 131.044 1865.34 128.153 1868.23 125.263C1871.12 122.372 1873.05 118.518 1874.98 113.7C1876.91 109.846 1876.91 105.028 1876.91 100.21C1876.91 95.3922 1875.94 90.5744 1874.98 86.7202C1873.05 82.8659 1871.12 79.0117 1868.23 75.1574C1865.34 72.2667 1861.49 69.376 1857.64 67.4489C1853.78 65.5218 1848.96 64.5582 1843.18 64.5582C1838.37 64.5582 1833.55 65.5218 1828.73 67.4489C1824.88 69.376 1821.02 72.2667 1818.13 75.1574C1815.24 78.0481 1813.31 81.9024 1811.39 86.7202C1810.42 90.5744 1809.46 95.3922 1809.46 100.21Z" fill="#8C989F"/>
<path d="M1926.04 67.4494H1907.74V57.8138H1926.04V28.9069C1926.04 23.1255 1927.01 18.3077 1928.93 15.417C1930.86 11.5628 1932.79 8.67206 1934.71 6.74494C1937.6 4.81781 1939.53 2.89069 1943.39 1.92713C1946.28 0 1949.17 0 1951.09 0C1955.91 0 1960.73 0.963563 1963.62 1.92713L1961.69 11.5628C1958.8 10.5992 1955.91 9.63563 1952.06 9.63563C1942.42 9.63563 1936.64 17.3441 1936.64 32.7611V56.8502H1956.87V66.4858H1936.64V142.607H1925.08V67.4494H1926.04Z" fill="#8C989F"/>
<path d="M615.68 228.364H684.089C692.76 228.364 702.395 229.327 711.067 230.291C720.702 231.255 728.41 235.109 736.118 238.963C743.826 243.781 749.607 249.562 753.461 258.234C758.278 265.943 760.205 277.506 760.205 290.995C760.205 303.522 756.351 313.157 749.607 322.793C742.862 331.465 732.264 337.246 717.811 340.137V341.101C725.519 342.064 733.227 343.991 739.008 346.882C745.753 349.773 750.57 353.627 755.388 358.445C760.205 363.263 764.059 369.044 765.986 376.753C768.877 383.497 769.84 391.206 769.84 399.878C769.84 413.368 766.95 424.931 762.132 433.603C757.315 442.275 750.57 449.02 741.899 453.838C734.191 458.655 725.519 462.51 715.884 463.473C706.249 465.4 697.578 466.364 689.87 466.364H613.753V228.364H615.68ZM637.84 330.502H684.089C695.651 330.502 704.322 329.538 712.03 326.647C718.775 323.757 724.556 320.866 728.41 316.048C732.264 312.194 735.154 307.376 736.118 303.522C737.081 298.704 738.045 294.85 738.045 290.995C738.045 282.323 737.081 275.578 734.191 270.761C731.3 264.979 727.446 261.125 722.629 257.271C717.811 254.38 712.03 251.489 706.249 250.526C700.468 249.562 693.724 248.599 686.016 248.599H636.877V330.502H637.84ZM637.84 445.166H687.943C700.468 445.166 711.067 443.238 719.738 440.348C727.446 437.457 734.191 433.603 738.045 428.785C741.899 423.967 744.789 419.149 746.716 414.331C748.643 409.514 748.643 404.696 748.643 399.878C748.643 391.206 746.716 383.497 743.826 377.716C740.935 371.935 736.118 366.153 730.337 362.299C724.556 358.445 718.775 355.554 712.03 353.627C705.286 351.7 698.541 350.736 691.797 350.736H637.84V445.166V445.166Z" fill="#8C989F"/>
<path d="M822.831 228.364H885.459C888.349 228.364 893.167 228.364 897.984 228.364C903.765 228.364 909.546 229.327 915.327 230.291C921.108 231.255 927.853 233.182 934.597 236.072C941.342 238.963 947.123 241.854 951.94 246.672C956.758 251.489 961.575 257.271 964.466 264.016C967.356 270.761 969.283 279.433 969.283 290.032C969.283 301.595 967.356 311.23 963.502 317.975C959.648 325.684 954.831 331.465 949.05 336.283C943.269 341.101 936.524 343.991 929.78 346.882C923.035 348.809 916.291 350.736 909.546 351.7L978.918 465.4H953.867L886.422 352.663H844.992V465.4H822.831V228.364ZM844.992 332.429H892.203C903.765 332.429 913.4 330.502 920.145 327.611C927.853 324.72 932.67 320.866 937.488 317.012C941.342 313.157 944.232 308.34 946.159 303.522C948.086 298.704 948.086 293.886 948.086 290.032C948.086 286.178 947.123 281.36 946.159 276.542C944.232 271.724 942.305 266.906 937.488 263.052C933.634 259.198 927.853 255.344 920.145 252.453C912.437 249.562 903.765 247.635 892.203 247.635H844.992V332.429Z" fill="#8C989F"/>
<path d="M1115.74 228.364H1138.86L1239.07 465.4H1214.01L1188 402.769H1062.74L1035.77 465.4H1011.68L1115.74 228.364ZM1126.34 252.453L1071.42 382.534H1180.29L1126.34 252.453Z" fill="#8C989F"/>
<path d="M1283.39 228.364H1356.61C1376.85 228.364 1394.19 231.255 1408.64 236.072C1423.1 240.89 1434.66 247.635 1444.29 255.344C1453.93 263.052 1461.64 271.724 1466.45 281.36C1472.23 290.995 1476.09 299.668 1478.98 308.34C1481.87 317.012 1482.83 324.72 1483.8 332.429C1484.76 339.174 1484.76 343.991 1484.76 346.882C1484.76 349.773 1484.76 354.591 1483.8 361.336C1482.83 368.081 1481.87 375.789 1478.98 385.425C1476.09 394.097 1472.23 402.769 1466.45 412.404C1460.67 422.04 1453.93 430.712 1444.29 438.421C1434.66 446.129 1423.1 452.874 1408.64 457.692C1394.19 462.51 1376.85 465.4 1356.61 465.4H1283.39V228.364ZM1304.58 445.166H1349.87C1365.29 445.166 1379.74 443.238 1394.19 439.384C1407.68 435.53 1419.24 429.749 1429.84 421.076C1439.48 413.368 1448.15 402.769 1453.93 390.242C1459.71 377.716 1462.6 363.263 1462.6 345.919C1462.6 328.574 1459.71 314.121 1453.93 301.595C1448.15 289.068 1440.44 279.433 1429.84 270.761C1420.2 263.052 1407.68 256.307 1394.19 252.453C1380.7 248.599 1366.25 246.672 1349.87 246.672H1304.58V445.166Z" fill="#8C989F"/>
<path d="M1536.79 228.364H1678.42V248.599H1558.95V332.429H1669.75V352.663H1558.95V465.4H1536.79V228.364Z" fill="#8C989F"/>
<path d="M1727.56 346.883C1727.56 328.575 1730.45 312.194 1736.23 296.777C1742.01 281.36 1750.68 268.834 1761.28 257.271C1771.88 246.672 1785.37 238 1799.82 231.255C1815.24 225.474 1831.62 221.619 1849.92 221.619C1868.23 221.619 1884.61 224.51 1900.03 231.255C1915.44 237.036 1927.97 245.708 1938.57 257.271C1949.16 267.87 1957.84 281.36 1963.62 296.777C1969.4 312.194 1972.29 328.575 1972.29 346.883C1972.29 365.19 1969.4 381.571 1963.62 396.988C1957.84 412.405 1949.16 425.895 1938.57 436.494C1927.97 447.093 1915.44 455.765 1900.03 462.51C1884.61 468.291 1868.23 472.146 1849.92 472.146C1831.62 472.146 1815.24 469.255 1799.82 462.51C1784.41 456.729 1771.88 448.057 1761.28 436.494C1750.68 425.895 1742.01 412.405 1736.23 396.988C1730.45 381.571 1727.56 365.19 1727.56 346.883ZM1749.72 346.883C1749.72 361.336 1751.65 375.789 1756.46 388.316C1761.28 400.842 1768.03 412.405 1776.7 421.077C1785.37 430.713 1795.97 437.457 1808.49 443.239C1821.02 449.02 1834.51 450.947 1849.92 450.947C1865.34 450.947 1878.83 448.057 1891.35 443.239C1903.88 437.457 1914.48 430.713 1923.15 421.077C1931.82 411.441 1938.57 400.842 1943.38 388.316C1948.2 375.789 1950.13 362.3 1950.13 346.883C1950.13 332.429 1948.2 317.976 1943.38 305.449C1938.57 292.923 1931.82 281.36 1923.15 272.688C1914.48 263.053 1903.88 256.308 1891.35 250.526C1878.83 244.745 1865.34 242.818 1849.92 242.818C1834.51 242.818 1821.02 245.708 1808.49 250.526C1795.97 256.308 1785.37 263.053 1776.7 272.688C1768.03 282.324 1761.28 292.923 1756.46 305.449C1752.61 317.976 1749.72 332.429 1749.72 346.883Z" fill="#8C989F"/>
<path d="M2031.06 228.364H2093.69C2096.58 228.364 2101.4 228.364 2106.22 228.364C2112 228.364 2117.78 229.327 2123.56 230.291C2129.34 231.255 2136.08 233.182 2142.83 236.072C2149.57 238.963 2155.35 241.854 2160.17 246.672C2164.99 251.489 2169.81 257.271 2172.7 264.016C2175.59 270.761 2177.52 279.433 2177.52 290.032C2177.52 301.595 2175.59 311.23 2171.73 317.975C2167.88 325.684 2163.06 331.465 2157.28 336.283C2151.5 341.101 2144.76 343.991 2138.01 346.882C2131.27 348.809 2124.52 350.736 2117.78 351.7L2187.15 465.4H2162.1L2095.62 352.663H2054.19V465.4H2032.03V228.364H2031.06ZM2053.22 332.429H2100.43C2112 332.429 2121.63 330.502 2128.38 327.611C2136.08 324.72 2140.9 320.866 2145.72 317.012C2149.57 313.157 2152.46 308.34 2154.39 303.522C2156.32 298.704 2156.32 293.886 2156.32 290.032C2156.32 286.178 2155.35 281.36 2154.39 276.542C2152.46 271.724 2150.54 266.906 2145.72 263.052C2141.87 259.198 2136.08 255.344 2128.38 252.453C2120.67 249.562 2112 247.635 2100.43 247.635H2053.22V332.429Z" fill="#8C989F"/>
<path d="M2236.29 228.364H2309.52C2329.75 228.364 2347.09 231.255 2361.55 236.072C2376 240.89 2387.56 247.635 2397.2 255.344C2406.83 263.052 2414.54 271.724 2419.36 281.36C2425.14 290.995 2428.99 299.668 2430.92 308.34C2433.81 317.012 2434.77 324.72 2435.74 332.429C2436.7 339.174 2436.7 343.991 2436.7 346.882C2436.7 349.773 2436.7 354.591 2435.74 361.336C2434.77 368.081 2433.81 375.789 2430.92 385.425C2428.03 394.097 2424.17 402.769 2419.36 412.404C2413.58 422.04 2406.83 430.712 2397.2 438.421C2387.56 446.129 2376 452.874 2361.55 457.692C2347.09 462.51 2329.75 465.4 2309.52 465.4H2236.29V228.364ZM2258.45 445.166H2303.74C2319.15 445.166 2333.61 443.238 2348.06 439.384C2361.55 435.53 2373.11 429.749 2383.71 421.076C2393.34 413.368 2402.01 402.769 2407.79 390.242C2413.58 377.716 2416.47 363.263 2416.47 345.919C2416.47 328.574 2413.58 314.121 2407.79 301.595C2402.01 289.068 2394.31 279.433 2383.71 270.761C2374.07 263.052 2361.55 256.307 2348.06 252.453C2334.57 248.599 2320.12 246.672 2303.74 246.672H2258.45V445.166Z" fill="#8C989F"/>
</g>
<defs>
<clipPath id="clip0">
<rect width="2437.66" height="476" fill="white"/>
</clipPath>
</defs>
</svg>
