<svg width="2419" height="686" viewBox="0 0 2419 686" fill="none" xmlns="http://www.w3.org/2000/svg">
<path d="M954.223 286.511C892.45 286.511 852.217 242.62 852.217 177.19C852.217 113.385 895.295 67.0557 957.068 67.0557C1016 67.0557 1052.57 108.915 1052.57 178.815V187.35H913.583C913.583 223.925 929.433 243.432 956.661 243.432C975.762 243.432 990.392 232.053 995.675 212.14L1051.35 217.017C1038.35 261.314 1002.99 286.511 954.223 286.511V286.511ZM992.831 153.618C992.424 123.139 978.2 107.289 953.816 107.289C931.058 107.289 916.021 123.951 914.802 153.618H992.831ZM2320.13 286.511C2258.35 286.511 2218.12 242.62 2218.12 177.19C2218.12 113.385 2261.2 67.0557 2322.97 67.0557C2381.9 67.0557 2418.48 108.915 2418.48 178.815V187.35H2279.49C2279.49 223.925 2295.34 243.432 2322.57 243.432C2341.67 243.432 2356.3 232.053 2361.58 212.14L2417.26 217.017C2404.25 261.314 2368.89 286.511 2320.13 286.511V286.511ZM2358.73 153.618C2358.33 123.139 2344.1 107.289 2319.72 107.289C2296.96 107.289 2281.93 123.951 2280.71 153.618H2358.73ZM1058.26 73.1517H1123.69L1153.76 195.071L1182.62 73.1517H1236.67L1266.74 197.103L1302.91 73.1517H1351.68L1291.94 280.821H1237.08L1202.53 145.897L1168.39 280.821H1118.41L1058.26 73.1517V73.1517ZM1461.81 109.321C1435.4 109.321 1417.52 132.079 1416.7 176.377C1415.89 220.674 1434.18 243.839 1459.78 243.839C1479.7 243.839 1498.8 228.396 1502.05 201.573L1553.66 207.669C1546.75 255.624 1508.55 286.511 1455.31 286.511C1393.54 286.511 1351.27 242.62 1352.49 177.19C1353.71 110.947 1398.01 67.0557 1463.85 67.0557C1513.83 67.0557 1548.38 96.3163 1554.07 145.897L1500.42 151.586C1496.76 124.358 1479.7 109.321 1461.81 109.321V109.321ZM1706.47 247.09C1700.42 259.16 1691.05 269.248 1679.45 276.161C1667.86 283.074 1654.53 286.525 1641.04 286.104C1597.96 286.104 1571.95 260.908 1571.95 222.706C1571.95 173.938 1616.65 147.929 1705.25 147.116V138.175C1705.25 117.043 1694.27 106.07 1672.33 106.07C1647.94 106.07 1634.13 116.23 1631.28 135.331L1577.23 129.235C1586.58 88.1884 1619.5 67.4621 1675.17 67.4621C1737.35 67.4621 1761.74 91.846 1761.74 148.742V240.994C1761.74 258.063 1763.36 271.474 1767.43 281.228H1710.12C1707.57 270.031 1706.34 258.573 1706.47 247.09V247.09ZM1632.5 219.049C1632.5 236.117 1643.47 246.277 1662.57 246.277C1686.96 246.277 1705.25 225.957 1705.25 197.916V179.222C1656.89 179.628 1632.5 194.258 1632.5 219.049ZM1832.86 215.797C1837.73 234.898 1855.21 245.871 1880.81 245.871C1902.76 245.871 1914.95 236.117 1914.95 223.113C1914.95 204.825 1897.47 205.637 1866.99 199.135C1817.82 188.975 1793.03 172.313 1793.03 134.924C1793.03 95.91 1824.73 67.0557 1876.75 67.0557C1919.42 67.0557 1948.27 86.1564 1960.46 121.107L1914.14 130.047C1907.23 113.385 1894.63 106.476 1874.71 106.476C1855.61 106.476 1845.05 113.791 1845.05 127.203C1845.05 145.491 1864.96 144.678 1902.35 152.806C1947.46 162.559 1969.41 178.815 1969.41 214.985C1969.41 256.031 1934.86 285.291 1875.93 285.291C1828.39 285.291 1794.65 261.314 1784.9 222.706L1832.86 215.797V215.797ZM2132.37 0H2192.11V280.821H2132.37V0ZM916.834 450.289C924.142 437.201 934.623 426.161 947.314 418.184C959.143 410.851 972.818 407.044 986.735 407.211C999.333 407.211 1009.9 409.649 1018.43 414.932C1027.63 420.616 1034.87 428.985 1039.16 438.91C1044.44 449.883 1046.88 462.075 1046.88 475.486V569.77C1046.88 576.679 1048.51 581.962 1051.76 584.807C1055.01 587.652 1060.29 589.277 1067.61 589.277H1081.02V604.314H979.42V589.277H989.173C998.114 589.277 1004.62 587.652 1007.87 584.807C1011.52 581.962 1013.15 577.492 1013.15 571.802V489.303C1013.15 471.422 1010.31 458.011 1005.02 449.476C1001.46 443.555 996.382 438.696 990.306 435.408C984.23 432.12 977.383 430.522 970.479 430.782C955.036 430.782 942.437 436.878 932.277 449.476C921.588 463.427 916.124 480.683 916.834 498.244V569.77C916.834 576.679 918.46 581.556 921.711 584.807C924.962 587.652 930.245 589.277 937.561 589.277H950.972V604.314H847.34V589.277H860.751C867.254 589.277 872.537 588.058 876.194 585.213C877.84 584.082 879.182 582.564 880.103 580.792C881.024 579.021 881.496 577.05 881.478 575.053V449.883C881.478 441.755 879.446 435.252 874.975 431.188C869.655 426.691 862.833 424.369 855.875 424.686H846.121V411.275L914.802 408.024L916.834 450.289V450.289ZM1085.08 411.275L1162.71 408.837V575.053C1162.71 579.524 1163.92 582.775 1165.96 584.807C1169.21 587.652 1173.27 588.871 1178.15 588.871H1200.09V603.908H1089.15V588.871H1109.47C1115.56 588.871 1120.03 587.245 1122.88 584.4C1125.72 581.556 1126.94 577.085 1126.94 571.396V449.476C1126.94 441.755 1124.91 436.065 1120.44 432.001C1115.97 427.937 1109.47 426.312 1100.93 426.312H1085.08V411.275V411.275ZM1139.54 329.995C1145.72 330.102 1151.61 332.632 1155.95 337.041C1160.28 341.45 1162.71 347.385 1162.71 353.566C1162.6 359.677 1160.13 365.509 1155.8 369.831C1151.48 374.152 1145.65 376.627 1139.54 376.731C1133.04 376.731 1127.75 374.293 1123.28 369.822C1121.11 367.71 1119.38 365.184 1118.19 362.392C1117 359.6 1116.39 356.6 1116.38 353.566C1116.38 347.47 1118.81 341.781 1123.28 337.31C1125.31 335.001 1127.82 333.154 1130.62 331.892C1133.42 330.63 1136.47 329.984 1139.54 329.995V329.995ZM1941.36 411.275L2018.99 408.837V575.053C2018.99 579.524 2020.2 582.775 2022.24 584.807C2025.49 587.652 2029.55 588.871 2034.43 588.871H2056.37V603.908H1945.43V588.871H1965.75C1971.84 588.871 1976.31 587.245 1979.16 584.4C1982 581.556 1983.22 577.085 1983.22 571.396V449.476C1983.22 441.755 1981.19 436.065 1976.72 432.001C1972.25 427.937 1965.75 426.312 1957.21 426.312H1941.36V411.275V411.275ZM1995.82 329.995C2001.92 329.995 2007.61 332.434 2012.08 336.904C2014.34 339.033 2016.13 341.62 2017.32 344.493C2018.51 347.365 2019.08 350.458 2018.99 353.566C2018.88 359.677 2016.41 365.509 2012.09 369.831C2007.76 374.152 2001.93 376.627 1995.82 376.731C1989.32 376.731 1984.04 374.293 1979.57 369.822C1977.39 367.71 1975.66 365.184 1974.47 362.392C1973.28 359.6 1972.67 356.6 1972.66 353.566C1972.66 347.47 1975.09 341.781 1979.57 337.31C1981.63 335.041 1984.14 333.221 1986.93 331.962C1989.73 330.704 1992.75 330.034 1995.82 329.995V329.995ZM1186.28 410.462H1282.19V424.686C1269.59 425.092 1261.46 425.905 1257.8 427.937C1254.14 429.969 1252.52 432.814 1252.52 436.472C1252.52 439.316 1253.33 442.568 1254.55 445.412L1305.76 559.61L1352.9 448.664C1353.71 446.632 1354.12 445.006 1354.12 442.974C1354.12 432.814 1343.96 426.718 1324.05 424.28V410.056H1404.51V424.28C1396.38 425.092 1389.88 427.124 1385 430.782C1380.13 434.44 1376.47 438.91 1373.63 445.006L1302.51 609.597H1291.13L1215.54 440.536C1213.51 435.403 1209.96 431.01 1205.38 427.937C1199.58 425.088 1193.13 423.826 1186.68 424.28V410.462H1186.28ZM1574.39 508.81H1434.99C1435.8 538.477 1441.09 559.204 1451.65 571.396C1457.2 578.015 1464.18 583.285 1472.07 586.806C1479.95 590.326 1488.54 592.005 1497.17 591.716C1524.4 591.716 1546.34 576.679 1563.01 546.199L1576.01 551.889C1555.69 590.903 1526.84 610.41 1488.64 610.41C1462.63 610.41 1440.68 601.063 1423.21 582.368C1414.27 572.718 1407.34 561.392 1402.8 549.045C1398.27 536.699 1396.22 523.576 1396.79 510.436C1396.79 479.143 1405.32 453.54 1422.8 434.033C1440.28 414.526 1461.81 404.773 1487.42 404.773C1506.11 404.773 1522.37 409.649 1536.18 419.403C1549.6 429.156 1560.16 442.974 1567.07 460.855C1571.54 473.454 1574.39 489.303 1574.39 508.81V508.81ZM1434.99 494.18H1520.34C1525.21 494.18 1529.28 492.555 1532.12 489.303C1534.97 486.052 1536.18 480.363 1536.18 471.828C1536.18 456.791 1531.31 443.787 1521.55 433.22C1517.34 428.276 1512.11 424.301 1506.22 421.565C1500.33 418.83 1493.91 417.399 1487.42 417.371C1472.79 417.371 1460.59 423.873 1450.43 436.472C1439.38 453.619 1433.98 473.802 1434.99 494.18V494.18ZM1780.84 532.382C1789.37 556.359 1799.12 573.021 1810.5 581.962C1822.03 591.437 1836.64 596.353 1851.55 595.78C1866.59 595.78 1878.37 592.528 1886.09 586.026C1892.18 581.407 1896.34 574.696 1897.76 567.19C1899.19 559.684 1897.78 551.916 1893.82 545.386C1890.93 540.887 1886.65 537.46 1881.62 535.633C1876.34 533.601 1862.52 530.35 1840.58 526.286C1819.44 522.222 1804.81 517.751 1796.69 513.281C1788.56 508.81 1782.06 502.308 1777.59 494.586C1773.08 486.658 1770.7 477.698 1770.68 468.577C1770.68 454.353 1775.55 441.348 1784.9 429.969C1797.09 415.339 1814.16 407.617 1836.11 407.617C1852.77 407.617 1868.21 412.9 1882.84 423.873L1896.66 409.243H1905.19L1910.48 478.737H1897.07C1893.07 462.194 1884.48 447.119 1872.28 435.252C1861.66 426.181 1848.03 421.399 1834.07 421.841C1821.07 421.841 1810.5 425.092 1803.19 431.595C1799.65 434.513 1796.8 438.174 1794.83 442.317C1792.86 446.461 1791.83 450.986 1791.81 455.572C1791.81 463.7 1795.06 470.609 1801.97 476.299C1808.88 481.988 1821.88 486.459 1841.8 489.303C1864.55 492.961 1879.59 496.212 1886.5 499.057C1896.95 502.555 1906.04 509.234 1912.51 518.158C1918.85 527.339 1922.12 538.294 1921.86 549.45C1921.86 566.519 1914.95 580.743 1901.54 592.528C1887.31 604.687 1869.04 611.068 1850.33 610.41C1831.23 610.41 1813.35 603.908 1797.09 591.716L1782.06 608.784H1771.08L1767.02 532.788H1780.84V532.382ZM2199.02 410.462H2292.09V424.686H2283.55C2275.42 424.686 2269.73 425.905 2266.89 427.937C2264.04 429.969 2262.42 433.22 2262.42 436.878C2262.42 438.504 2262.82 440.536 2263.64 442.161L2317.69 557.985L2358.33 462.075C2361.17 455.166 2362.8 448.664 2362.8 442.161C2362.8 437.284 2360.77 433.22 2356.7 430.376C2352.64 427.531 2344.92 425.905 2332.73 425.092V410.869H2413.19V425.092C2397.75 426.718 2387.59 433.22 2382.31 445.412L2309.56 612.036C2301.64 633.884 2289.02 653.724 2272.58 670.151C2261.66 680.081 2247.51 685.712 2232.75 686C2222.59 686 2214.06 683.155 2207.96 677.466C2205.02 674.871 2202.67 671.682 2201.06 668.108C2199.45 664.535 2198.61 660.659 2198.61 656.739C2198.61 650.643 2200.65 645.36 2204.3 641.296C2208.37 637.232 2212.84 635.2 2218.93 635.2C2224.22 635.2 2228.69 636.826 2232.34 640.483C2236 643.735 2237.63 647.799 2237.63 652.675L2236.82 658.771L2236 663.242C2236 666.493 2238.03 668.119 2242.5 668.119C2247.98 667.822 2253.29 666.144 2257.95 663.242C2263.64 659.991 2268.92 654.707 2274.2 647.392C2279.08 640.077 2288.02 623.821 2300.21 598.624L2226.25 442.161C2223.88 437.463 2220.56 433.31 2216.5 429.969C2212.43 427.531 2206.74 425.499 2199.02 424.686V410.462ZM585.213 0H661.21L767.686 173.532V0H827.02V280.821H763.622L644.548 85.75V280.821H585.213V0Z" fill="#8C989F"/>
<path d="M549.856 323.086H676.652V338.123H655.519C648.204 338.123 642.921 339.342 639.67 341.781C636.825 344.219 635.199 347.877 635.199 353.16V506.778C635.199 524.66 636.825 538.477 640.076 547.825C644.558 561.316 653.615 572.816 665.679 580.336C678.277 588.464 694.533 592.528 714.447 592.528C742.082 592.528 763.215 585.213 777.845 570.989C785.276 563.397 791.06 554.354 794.836 544.424C798.613 534.494 800.299 523.892 799.79 513.281V392.174C800.101 382.763 799.282 373.349 797.352 364.133C795.726 357.63 793.288 352.753 790.037 349.096C786.644 345.494 782.474 342.714 777.845 340.968C772.968 339.342 764.434 338.529 753.055 338.529V323.493H869.284V338.529H861.156C848.152 338.529 838.805 342.187 832.302 349.096C825.8 356.005 822.955 366.165 822.955 379.576V510.842C822.955 543.76 813.608 568.957 794.914 586.432C771.842 606.961 741.635 617.614 710.789 616.099C680.309 616.099 656.738 611.629 639.263 603.095C622.821 595.431 609.488 582.384 601.468 566.112C595.372 553.92 592.527 538.477 592.527 519.783V353.973C592.527 349.502 590.902 345.438 587.651 343C584.399 340.155 579.523 338.936 573.02 338.936H551.075V323.086H549.856ZM2105.55 237.743C2099.05 238.962 2092.95 239.775 2087.67 239.775C2066.94 239.775 2062.47 230.428 2062.47 206.856V113.385H2105.55V73.1515H2062.47V12.5981L2001.92 23.5709V72.7451H1975.09V112.978H2001.92V212.952C2001.92 263.752 2021.42 286.104 2070.19 286.104C2081.16 286.104 2092.95 284.885 2105.14 282.446V237.743H2105.55ZM2186.01 530.756C2186.25 546.145 2182.32 561.31 2174.64 574.647C2168.13 583.588 2160 588.058 2150.66 588.058C2142.94 588.058 2136.43 585.213 2131.15 579.524C2125.87 573.834 2123.43 565.3 2123.43 554.327V427.937H2184.39V411.275H2123.43V329.995H2109.21C2109.56 352.719 2102.57 374.952 2089.29 393.393C2081.16 403.96 2068.97 410.462 2053.12 412.9V427.124H2087.67V559.61C2087.67 574.24 2092.14 585.62 2101.48 594.56C2106.66 599.198 2112.69 602.769 2119.25 605.07C2125.8 607.372 2132.75 608.358 2139.68 607.971C2157.16 607.971 2171.79 601.469 2182.76 588.871C2193.74 576.272 2199.83 556.765 2200.64 530.349H2186.01V530.756ZM1729.63 403.553C1695.9 403.553 1667.45 442.974 1655.66 487.271V407.211L1585.36 410.462V425.499H1602.02C1609.34 425.499 1615.02 427.531 1619.09 432.001C1623.15 436.471 1625.18 442.974 1625.18 452.727V575.866C1625.18 579.524 1623.56 582.368 1620.31 585.213C1617.06 587.652 1612.18 588.871 1605.68 588.871H1586.58V603.907H1707.68V588.871H1682.89C1674.77 588.871 1669.08 587.652 1665.82 585.213C1664.2 583.998 1662.9 582.395 1662.04 580.549C1661.19 578.704 1660.82 576.675 1660.95 574.647V538.884C1660.95 501.495 1676.8 438.097 1708.09 438.097C1716.62 438.097 1715 451.915 1732.07 451.915C1745.89 451.915 1755.64 441.755 1755.64 428.343C1755.23 413.307 1743.45 403.553 1729.63 403.553V403.553ZM405.178 416.152C405.203 402.109 403.149 388.14 399.082 374.699C360.068 400.302 321.866 406.804 298.702 392.987C299.921 391.361 300.734 389.329 300.734 387.297C300.734 382.014 296.67 377.95 291.386 377.95C289.354 377.95 287.322 378.763 285.697 379.982C271.879 357.224 278.382 318.616 303.985 279.602C276.963 271.369 248.101 271.369 221.08 279.602C246.683 318.616 253.185 356.817 239.367 379.982C237.742 378.763 235.71 377.95 233.678 377.95C228.395 377.95 224.331 382.014 224.331 387.297C224.331 389.329 225.143 391.361 226.363 392.987C203.604 406.804 164.997 400.302 125.982 374.699C117.75 401.721 117.75 430.582 125.982 457.604C164.997 432.001 203.198 425.499 226.363 439.316C225.143 440.942 224.331 442.974 224.331 445.006C224.331 450.289 228.395 454.353 233.678 454.353C235.71 454.353 237.742 453.54 239.367 452.321C253.185 475.079 246.683 513.687 221.08 552.701C248.101 560.934 276.963 560.934 303.985 552.701C278.382 513.687 271.879 475.486 285.697 452.321C287.322 453.54 289.354 454.353 291.386 454.353C296.67 454.353 300.734 450.289 300.734 445.006C300.734 442.974 299.921 440.942 298.702 439.316C321.46 425.499 360.068 432.001 399.082 457.604C402.739 444.193 405.178 429.969 405.178 416.152V416.152ZM262.126 441.755C255.228 441.755 248.612 439.014 243.734 434.137C238.857 429.259 236.116 422.643 236.116 415.745C236.116 401.521 247.495 389.736 262.126 389.736C276.35 389.736 288.135 401.115 288.135 415.745C288.135 430.375 276.35 441.755 262.126 441.755ZM139.8 114.198C134.517 129.641 145.489 134.111 145.489 134.111C145.489 134.111 155.243 140.207 164.59 126.796C172.718 129.641 176.376 123.951 175.969 121.513C172.718 121.919 170.686 123.951 164.59 121.106C158.494 117.855 158.088 114.604 158.494 113.385C159.713 110.946 163.371 112.166 166.622 112.166C169.873 112.572 173.125 110.54 173.531 108.508C174.344 105.663 172.312 103.225 170.28 102.412C173.531 109.321 162.965 104.851 160.526 103.631C158.088 102.412 148.334 96.3162 156.056 95.097C154.43 93.8778 151.179 93.8778 149.147 95.9098C147.521 97.5354 148.334 101.193 150.366 103.631C152.398 106.07 155.649 108.102 154.43 110.54C153.617 111.759 151.585 113.791 145.489 110.54C139.393 107.289 138.581 103.631 137.768 101.193C135.33 102.819 132.485 108.915 139.8 114.198V114.198ZM163.371 81.6858C161.745 81.2794 157.275 79.6538 154.837 77.2155C151.179 73.9643 150.366 71.5259 148.741 68.6811C147.928 67.4619 145.489 69.4939 144.27 70.7131C141.425 73.5579 143.051 78.841 147.521 82.905C156.462 91.4394 164.184 85.7498 163.371 81.6858V81.6858ZM184.097 100.787C190.193 102.006 195.07 99.9738 195.476 96.3162C195.883 94.6906 195.883 91.8458 194.257 91.8458C191.006 91.8458 188.974 93.065 184.097 91.8458C180.846 91.033 177.189 89.001 175.969 87.7818C172.312 89.4074 172.312 98.7546 184.097 100.787Z" fill="#8C989F"/>
<path d="M0 0V246.277C0 479.143 262.127 613.661 262.127 613.661C262.127 613.661 524.254 479.956 524.254 246.277V0H0ZM98.3483 101.193C101.6 102.819 113.385 102.412 118.668 93.878C108.102 93.878 102.819 83.3116 103.225 78.4348C110.134 80.8732 122.732 83.3116 130.86 71.9325C128.828 74.7773 114.198 64.6173 118.668 55.2701C128.015 59.7405 154.431 44.2974 142.239 30.4799C153.618 27.6351 164.998 32.5119 166.623 44.7038C173.532 34.9502 183.286 35.3566 188.162 35.763C186.13 39.4206 184.098 47.955 190.194 49.5806C195.071 50.7998 201.573 48.3614 201.573 40.6398C206.45 43.891 210.514 58.9277 206.45 63.8045C206.45 63.8045 221.893 54.0509 228.802 67.4621C214.985 67.0557 217.017 93.878 225.145 95.0971C220.674 105.257 211.733 102.412 207.263 99.5675C205.637 106.883 205.637 127.203 211.733 135.737C207.263 137.363 197.916 135.737 191.414 129.641C188.569 133.705 186.13 145.491 192.226 156.87C188.779 157.421 185.248 157.075 181.974 155.865C178.7 154.655 175.792 152.621 173.532 149.961C169.468 159.714 160.121 175.97 141.833 173.938C145.084 157.682 125.577 150.774 116.636 167.842L112.572 160.934C106.883 152.806 103.225 132.486 113.791 115.417C109.727 116.23 97.1292 108.915 98.3483 101.193V101.193ZM31.699 51.6126C47.5486 39.827 57.7085 54.8637 60.9597 66.2429C76.8092 54.4573 61.7725 38.6078 58.9277 36.9822C58.9277 36.9822 71.5261 35.763 76.8092 48.7678C81.686 60.9597 75.59 68.2749 75.59 68.2749C75.59 68.2749 79.654 68.2749 82.0924 66.2429C91.0332 60.1469 90.6268 52.019 90.2204 50.3934C90.2204 50.3934 96.7227 54.4573 95.9099 62.1789C95.5035 67.4621 90.2204 71.5261 87.782 74.3709C85.75 77.2156 80.4668 83.3116 86.9692 102.819C90.2204 112.166 95.0972 119.481 98.7547 121.107C96.7227 125.171 93.0652 130.047 94.6908 141.833C74.7772 141.833 52.4254 101.6 50.3934 98.3483C61.7725 97.5355 61.3661 91.846 60.1469 88.1884C56.0829 74.7773 30.4799 87.3756 28.4479 89.814C29.2607 76.8092 43.4846 71.5261 52.019 73.1517C49.987 52.4254 31.699 51.6126 31.699 51.6126V51.6126ZM58.9277 162.559C58.9277 162.559 67.0557 149.555 54.8637 140.207C54.8637 140.207 68.6813 138.988 72.3389 148.335C73.9645 152.806 70.7133 160.934 73.1517 166.217C75.59 171.5 82.4988 174.345 90.6268 175.158C118.262 178.409 119.075 174.345 125.983 173.532C132.079 176.377 133.299 184.911 131.673 186.13C140.025 188.457 148.919 187.874 156.895 184.477C164.872 181.079 171.455 175.07 175.564 167.436C185.318 173.938 204.012 164.998 208.889 163.372C202.793 156.87 197.916 149.148 199.135 145.084C211.327 150.774 224.332 143.865 231.241 140.614C216.204 131.267 219.455 114.604 219.455 109.321L334.872 93.0652C348.69 91.0332 362.507 92.6588 367.384 93.4716C372.667 94.2844 391.768 98.7547 407.617 98.7547C423.06 98.7547 429.563 92.6588 431.595 87.3756C441.755 60.9597 388.923 71.5261 375.105 75.9964C364.539 79.2476 312.114 88.1884 297.89 89.0012C263.346 91.4396 249.122 74.7773 249.528 58.5213C249.935 42.6718 269.036 39.0142 290.168 39.827C311.301 40.6398 312.52 30.8863 334.466 29.6671C357.224 28.4479 390.955 43.0782 395.425 49.1742C380.389 47.955 374.293 49.987 366.165 52.8318C358.443 56.0829 342.594 62.1789 330.402 62.1789C325.931 62.1789 317.397 62.1789 308.863 59.3341C297.077 55.2701 282.04 49.1742 271.88 49.1742C265.378 49.1742 258.063 53.2382 258.876 62.1789C260.501 77.2156 280.415 81.2796 294.232 81.2796C308.05 81.2796 328.776 77.622 350.722 73.5581C373.073 69.4941 389.736 60.5533 411.681 58.5213C447.038 55.2701 447.851 83.718 447.851 83.718C462.481 68.2749 481.988 75.9964 483.614 86.1564C483.614 86.1564 471.828 82.0924 462.075 86.9692C449.883 93.4716 449.883 104.038 435.252 110.54C420.622 117.449 381.201 112.572 381.201 112.572C381.201 112.572 375.105 135.331 390.549 138.175C405.992 140.614 425.499 127.203 425.499 127.203C429.156 130.454 429.563 138.175 429.156 141.02C441.348 132.079 454.353 130.86 460.043 134.111C443.787 140.614 476.299 160.527 478.737 165.404C478.737 165.404 467.358 167.03 471.422 174.345C472.235 175.97 478.737 189.788 502.308 175.158C495.399 190.601 480.769 192.633 473.86 189.382C473.86 189.382 470.609 199.948 491.335 206.45C471.422 207.669 462.481 199.135 461.262 195.071C461.262 195.071 447.444 205.231 451.508 219.861C436.472 211.733 447.038 192.226 452.727 187.35C446.632 186.13 429.969 184.911 423.467 195.477C423.467 195.477 421.435 185.318 428.75 181.254C434.033 178.409 442.568 180.441 447.851 180.847C449.883 180.847 451.102 178.815 450.289 175.97C449.883 175.158 446.225 164.185 431.595 164.998L376.325 170.281C369.416 171.094 358.443 173.938 351.534 167.436C344.626 160.934 346.251 151.586 339.342 141.833C324.712 123.545 282.447 153.618 248.309 169.874C229.615 178.815 211.327 180.847 199.948 185.724C190.194 189.788 182.473 195.477 182.473 202.386C182.473 206.857 188.162 209.701 188.162 209.701C183.286 213.359 155.244 213.765 152.399 204.825C143.459 215.797 119.481 214.985 115.417 212.546C123.139 206.857 115.417 199.541 115.417 199.541C110.54 204.825 99.1611 214.985 73.9645 203.605C73.9645 203.605 82.0924 193.852 70.7133 190.601C67.4621 189.788 63.8045 191.414 62.9917 193.852C61.7725 197.509 53.6446 208.482 62.9917 215.797C53.6446 216.61 41.859 200.354 52.019 183.286C48.3614 182.066 27.6351 183.692 26.8223 199.135C15.4431 176.377 37.795 171.094 49.987 170.281C49.987 170.281 40.6398 153.212 22.7583 160.121C29.6671 139.801 47.1422 151.18 58.9277 162.559V162.559ZM288.543 227.989C275.132 231.241 267.816 215.391 269.036 206.857C269.036 206.857 251.56 209.701 249.935 227.177C240.588 212.14 253.186 202.793 258.876 201.98C258.876 201.98 246.277 188.569 230.021 198.322C231.241 188.975 248.309 179.222 267.004 193.445C267.004 193.445 263.346 175.97 251.154 176.377C251.154 176.377 258.876 171.094 265.784 173.938C274.319 177.596 274.319 188.569 280.415 190.601C288.543 193.039 301.141 184.911 302.36 183.692C303.579 182.473 304.799 180.847 302.36 178.815C301.141 178.002 299.922 176.783 294.639 173.938C286.511 170.281 293.419 158.495 295.451 156.463C302.767 149.555 316.178 143.052 324.712 151.586C330.808 157.682 334.059 173.532 334.872 175.97C335.685 178.409 340.968 191.414 354.379 193.445C344.219 200.354 329.995 195.884 324.712 188.162C325.525 198.322 311.301 217.017 306.018 217.423C306.018 217.423 306.018 202.793 286.917 204.825C283.259 205.231 280.821 206.857 280.821 209.295C280.008 214.578 278.383 221.487 288.543 227.989V227.989ZM510.436 248.309C510.436 469.39 262.533 595.78 262.533 595.78C262.533 595.78 14.6303 468.577 14.6303 248.309V246.277H510.436V248.309Z" fill="#8C989F"/>
</svg>
