<svg width="1689" height="610" viewBox="0 0 1689 610" fill="none" xmlns="http://www.w3.org/2000/svg">
<path fill-rule="evenodd" clip-rule="evenodd" d="M125.776 10.0785H322.235L442.909 418.423H444.576L527.24 10.0785H675.733L550.955 598.941H355.154L232.042 191.481H230.376L148.494 598.941H0L125.776 10.0785V10.0785ZM733.901 10.0785H891.578L845.268 235.364H1031.64L1078.08 10.0785H1235.76L1113.44 598.941H955.762L1008.05 346.732H821.553L769.258 598.941H611.56L733.901 10.0785ZM1650.77 143.393C1620.4 129.098 1579.06 116.468 1520.89 116.468C1458.5 116.468 1407.87 125.673 1407.87 172.98C1407.87 256.416 1636.47 225.275 1636.47 404.138C1636.47 566.916 1485.42 609.123 1348.79 609.123C1288.07 609.123 1218.03 594.725 1166.63 578.651L1203.74 458.881C1234.87 479.172 1297.37 492.664 1348.79 492.664C1397.79 492.664 1474.46 483.368 1474.46 422.639C1474.46 328.117 1245.85 363.567 1245.85 197.467C1245.85 45.5487 1379.16 0 1508.26 0C1580.84 0 1649.1 7.64116 1688.78 26.1424L1650.77 143.393V143.393Z" fill="#8C989F"/>
</svg>
