<svg width="2394" height="876" viewBox="0 0 2394 876" fill="none" xmlns="http://www.w3.org/2000/svg">
<rect x="347" y="110" width="366" height="670" fill="white"/>
<rect x="347" y="110" width="366" height="670" fill="white"/>
<rect x="400" y="158" width="329" height="591" fill="white"/>
<rect x="400" y="158" width="329" height="591" fill="white"/>
<rect x="153" y="110" width="241" height="655" fill="#0ADDCC"/>
<rect x="332" y="399" width="208" height="240" fill="#0ADDCC"/>
<rect x="228" y="582" width="208" height="240" fill="#0ADDCC"/>
<rect x="317.569" y="23" width="171.261" height="179.138" transform="rotate(30 317.569 23)" fill="#0ADDCC"/>
<rect x="471.304" y="208" width="57.8644" height="61.5475" transform="rotate(35.0017 471.304 208)" fill="#C4C4C4"/>
<rect x="469.134" y="211" width="53.188" height="57.7654" transform="rotate(35.0017 469.134 211)" fill="#0ADDCC"/>
<rect x="469.134" y="228" width="53.188" height="57.7654" transform="rotate(35.0017 469.134 228)" fill="#0ADDCC"/>
<rect x="464.04" y="261.673" width="53.3027" height="54.1147" transform="rotate(35.0017 464.04 261.673)" fill="#0ADDCC"/>
<rect x="396.257" y="330" width="34.841" height="37.0587" transform="rotate(35.0017 396.257 330)" fill="#C4C4C4"/>
<rect x="445.329" y="314" width="28.4039" height="30.2118" transform="rotate(35.0017 445.329 314)" fill="#0ADDCC"/>
<rect x="432.048" y="330" width="28.4039" height="30.2118" transform="rotate(52.748 432.048 330)" fill="#0ADDCC"/>
<rect x="402.834" y="324.459" width="35.3649" height="37.6159" transform="rotate(52.748 402.834 324.459)" fill="#0ADDCC"/>
<path d="M404.114 0.165771C374.614 3.16577 356.514 6.06573 333.914 11.5657C282.014 24.0657 231.614 46.7657 187.914 77.2657C166.414 92.1657 149.514 106.466 128.014 127.966C91.4136 164.666 65.9136 199.866 44.2136 244.066C21.6136 289.866 8.2136 335.966 1.4136 391.566C-0.686401 408.466 -0.386401 470.366 1.9136 488.566C8.3136 539.966 21.9136 586.366 43.4136 630.166C53.2136 650.066 58.4136 659.166 70.4136 677.466C137.114 779.866 243.414 849.866 363.614 870.466C389.914 874.966 403.714 875.966 438.114 875.966C473.314 876.066 484.914 875.166 514.614 869.966C631.414 849.966 736.314 781.166 803.414 680.866C842.114 622.966 865.914 557.766 874.214 486.566C876.314 467.866 877.114 426.766 875.714 407.066C871.514 350.066 857.614 297.466 833.214 246.966C773.514 123.466 657.814 33.8657 524.014 7.56573C493.014 1.46573 481.314 0.365735 443.114 0.0657349C423.914 -0.0342651 406.314 -0.0342285 404.114 0.165771ZM554.114 111.566C597.214 115.466 637.414 136.466 665.114 169.666C694.514 204.866 714.214 256.466 722.314 319.066C723.714 330.266 724.114 340.066 724.114 368.066C724.114 407.166 722.814 420.366 716.114 454.066C695.714 555.466 639.214 656.066 558.014 735.566C528.114 764.766 511.014 774.366 487.114 775.366C474.314 775.866 467.614 774.766 458.714 770.566C451.814 767.266 441.514 758.066 439.614 753.466L438.414 750.566L435.414 755.066C421.314 776.366 388.014 781.866 359.614 767.666C344.114 759.866 334.014 751.766 311.614 728.966C273.714 690.366 242.414 649.166 217.414 605.066C183.114 544.766 163.514 487.066 154.414 420.166C151.314 398.066 151.114 338.666 153.914 317.566C164.914 235.766 194.514 175.366 239.914 142.766C262.114 126.766 287.914 116.166 313.014 112.666C324.114 111.066 343.914 111.266 354.214 113.066C379.214 117.366 402.014 128.566 421.914 146.266C434.414 157.466 434.414 157.466 430.014 162.766C424.714 168.966 417.714 179.666 411.614 190.566C408.614 195.766 406.114 200.266 406.014 200.466C405.814 200.666 402.414 197.866 398.314 194.266C381.614 179.766 369.614 174.066 350.014 171.466C334.414 169.466 314.614 173.366 298.614 181.666C278.414 192.166 260.114 211.666 248.214 235.266C223.914 283.566 214.714 359.766 224.214 434.066C235.014 519.066 268.714 602.866 329.814 696.966C346.114 722.066 352.114 730.166 361.514 739.966C378.314 757.366 390.814 763.266 408.614 762.266C419.314 761.766 426.914 758.866 433.314 753.166L438.114 748.766L442.914 753.166C454.814 763.866 475.114 765.466 492.114 757.166C507.814 749.366 519.914 736.166 542.114 702.666C576.114 651.066 599.814 606.866 618.814 559.166C644.114 495.766 657.314 425.166 655.214 365.066C651.314 254.366 615.014 186.366 552.614 172.966C542.714 170.866 524.514 171.166 515.014 173.566C488.014 180.466 460.214 206.066 442.214 240.666C427.814 268.166 424.214 293.566 431.414 315.166L434.414 324.066L432.414 327.366C430.114 331.066 423.814 335.666 418.214 337.666C414.514 338.966 414.314 338.966 412.014 336.066C405.014 327.566 398.714 312.566 395.514 297.366C393.714 288.566 393.514 284.866 393.914 271.566C394.714 247.466 399.914 227.866 412.114 203.066C440.514 145.066 485.414 113.166 541.614 110.766C543.014 110.666 548.614 111.066 554.114 111.566ZM472.114 222.066C487.914 263.966 485.014 305.966 464.214 335.366C454.914 348.566 446.314 354.966 432.014 359.166C423.214 361.766 409.814 361.466 402.114 358.566C394.614 355.666 386.314 347.566 382.214 339.066C379.714 333.966 379.214 331.666 378.914 323.566L378.614 314.066L380.514 319.766C386.114 336.866 398.014 346.566 411.714 345.266C430.314 343.566 443.414 328.466 447.414 303.666C449.314 292.266 448.214 279.966 444.114 265.366L441.414 255.866L444.914 248.266C451.114 234.966 466.814 212.366 468.714 214.266C469.114 214.666 470.614 218.166 472.114 222.066ZM497.414 324.066C496.314 344.466 481.714 359.666 461.614 361.266C458.014 361.466 453.414 361.366 451.314 360.866L447.514 360.066L453.614 355.666C457.014 353.166 460.614 349.966 461.614 348.466C463.214 346.366 464.614 345.766 469.114 345.266C475.814 344.566 483.014 340.366 487.714 334.366C491.214 329.966 495.514 320.266 495.614 316.766C495.614 315.266 496.014 314.666 496.714 315.166C497.514 315.566 497.714 318.666 497.414 324.066ZM467.714 438.466L471.614 442.366V472.466V502.566H500.114C531.514 502.566 533.114 502.866 537.914 508.466L540.614 511.766V537.066V562.366L537.914 565.666C533.114 571.266 531.514 571.566 500.114 571.566H471.614V601.666V631.766L467.714 635.666L463.814 639.566H438.514C401.614 639.566 403.614 641.766 403.614 600.266V571.666L373.914 571.366C333.014 570.966 335.614 573.366 335.614 537.066C335.614 510.266 335.914 508.666 341.314 504.966C343.914 503.266 346.614 503.066 373.914 502.766L403.614 502.466V473.866C403.614 432.366 401.614 434.566 438.514 434.566H463.814L467.714 438.466Z" fill="#1676FF"/>
<path d="M1590 207.952C1549.3 212.052 1510 227.252 1480.5 250.352C1438.3 283.352 1412.1 331.752 1402.8 393.352C1401.1 405.152 1401 448.152 1402.8 460.352C1409.4 505.852 1424 541.952 1448.5 573.352C1455.6 582.452 1472.5 599.052 1481.7 606.152C1507.8 626.052 1541.4 639.652 1579.5 645.452C1596.6 648.152 1641.3 648.152 1658.5 645.452C1687.3 641.052 1716.4 631.052 1735.3 619.152L1739.3 616.652L1746.9 623.952C1751.1 628.052 1762.7 639.452 1772.8 649.352L1791 667.352L1819 639.352L1847 611.352L1822 586.352L1797.1 561.352L1801.7 554.352C1816.8 531.252 1828.8 496.952 1834.2 461.352C1836.2 447.452 1836 404.352 1833.7 389.852C1825.7 338.452 1805.7 296.552 1774 264.852C1741.4 232.252 1698.4 213.052 1646.1 207.852C1634.1 206.652 1602.3 206.752 1590 207.952ZM1632.6 278.852C1654.7 280.652 1670.4 284.952 1687.4 293.652C1715.9 308.252 1736.6 333.552 1748.1 367.752C1765.8 420.952 1759.7 474.052 1730.7 517.852C1724.3 527.452 1706.7 545.052 1697 551.552C1661.3 575.452 1613.2 581.252 1570.9 566.752C1561.6 563.552 1546.7 555.852 1538 549.752C1511.8 531.352 1490.9 498.052 1483 462.052C1474.8 425.152 1480.4 381.852 1497.5 349.052C1519.3 307.252 1556.5 282.852 1604.3 278.852C1618 277.752 1618.7 277.752 1632.6 278.852Z" fill="#1676FF"/>
<path d="M969 428.552V640.852H1008.5H1048L1048.2 570.052L1048.5 499.352L1087 499.052L1125.5 498.852L1187.4 569.852L1249.3 640.852H1296.7H1344.1L1343.8 637.852C1343.6 635.452 1330.2 619.752 1280 563.252C1245.1 523.852 1216.4 491.352 1216.2 490.852C1216.1 490.452 1217.9 489.852 1220.2 489.452C1222.6 489.052 1229.8 486.952 1236.3 484.852C1284.3 468.752 1312.6 434.852 1321.2 382.852C1323.1 371.452 1322.8 342.352 1320.7 330.852C1314.8 299.252 1299.1 271.852 1275.4 251.952C1255 234.952 1232.6 224.952 1203 219.652C1188.8 217.152 1179.9 216.952 1059.8 216.552L969 216.152V428.552ZM1193.1 293.552C1216.2 300.052 1231.9 314.352 1239.3 335.752C1243.3 346.952 1244.2 363.452 1241.5 375.352C1236.8 396.552 1222.2 413.952 1202.4 421.652C1189.8 426.652 1186.7 426.852 1115 426.852H1048V359.552C1048 322.452 1048.3 291.852 1048.7 291.452C1049.1 291.052 1080 290.952 1117.5 291.052C1183.4 291.452 1185.7 291.452 1193.1 293.552Z" fill="#1676FF"/>
<path d="M2021.4 428.852L1926.3 640.852H1969.5H2012.7L2030.8 601.052L2048.8 561.352H2160H2271.2L2288.9 600.852L2306.6 640.352L2350.2 640.652L2393.9 640.852L2381.6 613.652C2374.9 598.652 2332.1 503.252 2286.5 401.552L2203.7 216.852H2160.1H2116.5L2021.4 428.852ZM2199.8 396.552C2221.3 445.852 2238.8 486.352 2238.6 486.552C2238.5 486.752 2203 486.752 2159.7 486.652L2081.2 486.352L2120.3 396.552C2141.8 347.252 2159.7 306.852 2160 306.852C2160.4 306.852 2178.3 347.252 2199.8 396.552Z" fill="#1676FF"/>
</svg>
