<svg xmlns="http://www.w3.org/2000/svg" id="book" width="479.998" height="480" viewBox="0 0 479.998 480"><path id="Path_1434" fill="#fff" d="M240,0H136a8,8,0,0,0-8,8V64H8a8,8,0,0,0-8,8V472a8,8,0,0,0,8,8H240a8,8,0,0,0,8-8V8A8,8,0,0,0,240,0Zm-8,416H144V400h88ZM16,120H128V360H16ZM232,88H144V64h88ZM16,376H128v24H16Zm128,8V104h88V384ZM232,16V48H144V16ZM128,80v24H16V80ZM16,416H128v48H16Zm128,48V432h88v32Zm0,0" data-name="Path 1434"/><path id="Path_1435" fill="#fff" d="M479.742,437.984l-96-368a7.992,7.992,0,0,0-9.8-5.711l-120,32a8,8,0,0,0-5.68,9.742l96,368a7.979,7.979,0,0,0,9.8,5.7l120-32A8,8,0,0,0,479.742,437.984ZM278.5,158.543l104.543-27.871,3.762,14.4L282.266,172.984Zm112.344,2.051,46.4,177.98-104.5,27.883-46.4-177.992Zm50.473,193.469,8.191,31.395L344.961,413.328l-8.16-31.383ZM370.289,81.8,379,115.2,274.457,143.062l-8.7-33.383ZM357.711,462.2,349,428.8l104.543-27.879,8.7,33.383Zm0,0" data-name="Path 1435"/><path id="Path_1436" fill="#fff" d="M104,144H40a8,8,0,0,0-8,8v64a8,8,0,0,0,8,8h64a8,8,0,0,0,8-8V152A8,8,0,0,0,104,144Zm-8,64H48V160H96Zm0,0" data-name="Path 1436"/></svg>