<svg xmlns="http://www.w3.org/2000/svg" width="477.987" height="204.832" viewBox="0 0 477.987 204.832">
  <g id="key" transform="translate(0 -136.577)">
    <g id="Group_454" data-name="Group 454">
      <path id="Path_1443" data-name="Path 1443" d="M460.92,153.66a17.067,17.067,0,0,0-17.067,17.067v51.2h-51.2v-51.2a17.067,17.067,0,1,0-34.134,0v51.2H203.384a102.4,102.4,0,1,0,0,34.133H460.92a17.067,17.067,0,0,0,17.067-17.067V170.726A17.067,17.067,0,0,0,460.92,153.66Zm-358.4,153.6a68.267,68.267,0,1,1,68.267-68.267A68.267,68.267,0,0,1,102.52,307.26Z" fill="#fff"/>
    </g>
  </g>
</svg>
