<svg xmlns="http://www.w3.org/2000/svg" id="logout" width="490.667" height="490.666" viewBox="0 0 490.667 490.666"><g id="Group_448" data-name="Group 448"><g id="Group_447" data-name="Group 447"><path id="Path_1437" fill="#fff" d="M330.667,192a10.671,10.671,0,0,0,10.667-10.667v-128A53.4,53.4,0,0,0,288,0H53.333A53.394,53.394,0,0,0,0,53.333v384a53.394,53.394,0,0,0,53.333,53.333H288a53.393,53.393,0,0,0,53.333-53.333v-128a10.667,10.667,0,1,0-21.333,0v128a32.039,32.039,0,0,1-32,32H53.333a32.039,32.039,0,0,1-32-32v-384a32.039,32.039,0,0,1,32-32H288a32.039,32.039,0,0,1,32,32v128A10.671,10.671,0,0,0,330.667,192Z" data-name="Path 1437"/></g></g><g id="Group_450" data-name="Group 450"><g id="Group_449" data-name="Group 449"><path id="Path_1438" fill="#fff" d="M480,234.667H138.667a10.666,10.666,0,1,0,0,21.333H480a10.666,10.666,0,1,0,0-21.333Z" data-name="Path 1438"/></g></g><g id="Group_452" data-name="Group 452"><g id="Group_451" data-name="Group 451"><path id="Path_1439" fill="#fff" d="M487.531,237.824l-64-64a10.665,10.665,0,0,0-15.083,15.083L464.9,245.355,408.448,301.8a10.673,10.673,0,0,0,15.083,15.105l64-64A10.676,10.676,0,0,0,487.531,237.824Z" data-name="Path 1439"/></g></g></svg>