<?xml version="1.0" encoding="utf-8"?>
<!-- Generator: Adobe Illustrator 23.0.1, SVG Export Plug-In . SVG Version: 6.00 Build 0)  -->
<svg version="1.1" id="svg" xmlns="http://www.w3.org/2000/svg" xmlns:xlink="http://www.w3.org/1999/xlink" x="0px" y="0px"
	 viewBox="0 0 400 377.7" style="enable-background:new 0 0 400 377.7;" xml:space="preserve">
<style type="text/css">
	.st0{fill-rule:evenodd;clip-rule:evenodd;fill:#3A2D66;}
	.st1{fill-rule:evenodd;clip-rule:evenodd;fill:#98A1E1;}
</style>
<g id="svgg">
	<path id="path0" class="st0" d="M191.8,33.8c-0.3,0.3-3.9,6-8,12.7c-4.1,6.7-7.7,12.6-8.1,13.1c-0.3,0.5-0.8,1.3-1,1.7
		c-0.2,0.4-1.8,3-3.5,5.8c-2.7,4.4-3,5.1-2.5,5.5c1.4,1,65.9,1.3,65.9,0.3c0-0.4-2.1-3.9-4.7-7.8c-2.6-3.9-6.3-9.6-8.3-12.7
		c-10.2-15.7-12.3-18.8-12.9-19C207.3,32.9,192.3,33.2,191.8,33.8 M218.3,95.8c-3.7,1.5-3.4,6.1,0.4,7.3c4.6,1.4,8.2-2.8,5.3-6.1
		C223,95.8,219.9,95.2,218.3,95.8 M183.6,96.8c-2.8,1-3.6,3.9-1.7,5.9c2.1,2.2,5.7,2.2,7.6-0.1C192.2,99.3,188.1,95.2,183.6,96.8
		 M318.2,174.4c-11.1,3.4-45.3,13.6-50.8,15.1c-1.8,0.5-4.2,1.2-5.5,1.6c-1.2,0.4-6.4,1.9-11.5,3.4c-5.1,1.5-10.9,3.2-12.8,3.8
		c-2,0.6-4.8,1.4-6.3,1.9l-2.7,0.8v2.8c0,3.6-4.6,4.5,32.5-6.5c4.5-1.3,12.5-3.7,17.8-5.2c24.6-7.2,43.3-12.7,44.3-13.1
		c2.2-0.8,2.2-1.3,2.2,22.1v21.3l1,0.4c1.4,0.5,3.8,0.5,4.3-0.1c0.3-0.4,0.4-7.5,0.3-26l-0.1-25.5l-0.9-0.1
		C329.2,171.2,324,172.6,318.2,174.4 M80.5,173.1c-0.7,0.7-0.7,52.4,0,53.3c0.8,1.1,4.9,0.4,5.2-0.9c0.1-0.5,0.3-10.7,0.3-22.5
		c0-18.9,0.1-21.6,0.6-22.1c0.5-0.4,1.7-0.1,7.3,1.5c5.7,1.7,17,5,30.3,9c1.8,0.5,4.2,1.3,5.5,1.6c2.2,0.7,5.3,1.6,11.5,3.4
		c1.6,0.5,4.7,1.4,7,2.1c2.3,0.7,5.3,1.6,6.8,2s5.9,1.7,9.8,2.9c3.9,1.2,7.7,2.3,8.3,2.4c0.6,0.2,2.8,0.8,4.9,1.4
		c4.4,1.3,4.4,1.3,4.3-2l-0.1-2.6l-2.1-0.7c-1.1-0.4-4.6-1.5-7.7-2.4c-3.1-0.9-9.2-2.7-13.4-4c-7-2.1-56-16.6-65.2-19.3
		c-3.9-1.1-12.8-3.7-12.8-3.7C81,172.6,80.8,172.8,80.5,173.1 M293.1,206.3c-7.6,2.3-14.4,4.3-15.1,4.5c-0.7,0.2-5.1,1.4-9.6,2.8
		c-4.6,1.4-16.5,4.9-26.4,7.8c-10,2.9-18.9,5.6-19.8,5.9c-0.9,0.3-3.2,1-5.1,1.5c-1.9,0.5-3.8,1.2-4.2,1.4l-0.9,0.4v55.9
		c0,50.7,0.1,55.9,0.6,56.1c0.5,0.2,19.5-5.2,34.3-9.8c1.2-0.4,5.5-1.6,9.4-2.8c3.9-1.2,7.7-2.3,8.3-2.5c0.6-0.2,2-0.6,3-0.9
		c1-0.3,3.4-1,5.3-1.6c1.9-0.6,4.8-1.4,6.6-2c1.8-0.5,4.6-1.3,6.2-1.8c5.5-1.6,6.8-2,10.2-3c1.9-0.5,4.7-1.4,6.2-1.9
		c1.6-0.5,3.3-1,4-1.1c2.2-0.5,2.1,0.3,2.1-18v-17l-1-0.4c-0.5-0.2-1.5-0.4-2.2-0.4c-10.6,0-14.5-5.8-6.8-10.2c1.1-0.6,2-1.3,2-1.5
		c0-0.3-2.9-1.5-3.7-1.5c-1,0-3.5-2.7-3.5-3.8c0-1.6,2.1-3.7,5.2-5.2c2.7-1.3,3.4-2.1,1.8-2.4c-5.9-1.1-7.7-1.8-8.8-3.3
		c-1.4-2,0.4-4.7,4.4-6.7c2.2-1.1,2.2-1.6,0.2-2.3c-10-3.1-6.3-8.9,8-12.7c1.9-0.5,3.7-1.2,3.8-1.4c1.1-1.8,0.2-27-0.9-26.3
		C306.9,202.1,300.7,204,293.1,206.3 M103,204.2c-0.6,0.6-0.3,27.2,0.3,27.7c0.3,0.3,2.3,0.9,4.5,1.4c3.7,0.9,4.5,1.1,8.8,2.7
		c4.1,1.5,7.3,4.8,7.3,7.2c0,1.7-3.1,3.5-8.2,4.8c-0.9,0.2-0.5,1.1,0.9,1.9c7.1,3.7,6.3,8.4-1.6,10.4c-4,1-4,1.2-0.7,3
		c7.6,4.1,8.1,8.5,1,10.4c-4.9,1.4-4.9,1.4-1.9,3.1c8,4.5,4.8,9.7-6.7,10.8c-4.4,0.4-4-1-4,14.5v13.6l0.8,0.5c0.5,0.3,1.4,0.7,2,0.8
		c0.6,0.1,2.5,0.7,4.2,1.2c1.7,0.5,3.9,1.2,4.9,1.5c1,0.3,3.2,1,4.9,1.5c1.7,0.5,4,1.2,5.1,1.5c3.8,1.1,14.8,4.3,16.2,4.8
		c0.5,0.2,1.9,0.6,3,0.9c4.3,1.2,12.8,3.7,15.7,4.6c1.7,0.5,6.3,1.9,10.2,3c3.9,1.2,7.6,2.2,8.1,2.4c0.5,0.2,2,0.6,3.2,1
		c1.2,0.3,2.7,0.8,3.2,0.9c0.5,0.2,2.1,0.7,3.6,1.1c1.5,0.4,4.4,1.3,6.5,2c2.1,0.7,4,1.1,4.2,0.9c0.4-0.3,0.5-111.6,0.1-112.2
		c-0.2-0.2-1-0.6-1.8-0.8c-0.8-0.2-5.5-1.6-10.4-3.1c-4.9-1.5-14.7-4.4-21.7-6.4c-7.1-2.1-16.1-4.7-20-5.9
		c-3.9-1.2-9.7-2.9-12.8-3.8s-10.6-3.1-16.7-4.9C104.3,203.9,103.5,203.8,103,204.2 M329.9,278.8c-2,0.6-2.1,1-2.1,8.6
		c0,9.5,0,9.5,3.8,8.1c2.3-0.8,2.2-0.6,2.2-8.7C333.9,277.7,333.9,277.6,329.9,278.8 M77.4,287.3c0,5.1,0,5.1,2.9,5.9
		c2.7,0.8,2.8,0.6,2.8-4.5c0-5.1-0.1-5.4-3.3-5.7l-2.4-0.3V287.3"/>
	<path id="path2" class="st1" d="M195.9,24.1c-2.7,4.3-3.6,6.3-3.6,7.2c0,0.7-0.2,1.2-0.3,1.2s-2.7,3.9-5.6,8.6
		c-17.2,28-18.7,30.5-18.7,31.6l0,1.1l11.5,0.1c6.3,0.1,21.4,0.2,33.4,0.4c13.7,0.2,22.2,0.2,22.6,0c1.1-0.5,0.6-1.6-3.1-7.2
		c-1.8-2.8-3.4-5.2-3.5-5.4c-0.2-0.3-3.8-5.9-10.9-16.6c-1.4-2.1-2.6-3.9-2.7-4.2c-0.8-1.7-5.4-8.2-5.8-8.4
		c-0.3-0.1-0.6-0.7-0.6-1.4c0-1.4-7.3-12.8-8.3-13C199.7,18.1,198.4,19.9,195.9,24.1 M208.7,33.5c0.6,0.2,2.7,3.4,12.9,19
		c2,3,5.7,8.7,8.3,12.7c2.6,3.9,4.7,7.5,4.7,7.8c0,1-64.6,0.7-65.9-0.3c-0.5-0.4-0.1-1.1,2.5-5.5c1.7-2.8,3.3-5.4,3.5-5.8
		c0.2-0.4,0.7-1.2,1-1.7c0.3-0.5,4-6.4,8.1-13.1c4.1-6.7,7.7-12.4,8-12.7C192.3,33.2,207.3,32.9,208.7,33.5 M165.9,80.7
		c-0.4,0.1-0.9,0.5-1,1c-0.5,1.8-0.3,97.9,0.2,98.6c0.4,0.5,8.2,2.8,18.2,5.4c1,0.3,5.8,1.5,10.6,2.8l8.7,2.4l4.2-1
		c2.3-0.6,9.3-2.4,15.5-4c11.6-3.1,12.8-3.4,15.7-4.2l1.7-0.5l0.1-49.9c0.1-46.5,0.1-49.9-0.5-50.3
		C238.6,80.5,168.2,80.3,165.9,80.7 M225.2,88.5c8.8,4.1,10.5,14.1,3.7,21c-10.1,10-27.6,1.8-24-11.2
		C207.2,89.6,217.3,84.8,225.2,88.5 M190.2,89.2c9.2,3.9,12,17,4.9,22.4c-9.5,7.3-23.1,1.7-24.6-10.1
		C169.3,92.9,181.3,85.4,190.2,89.2 M217.8,95.4c-3.5,1.8-3.4,6.3,0.2,8.1c3.6,1.8,7.5-0.4,7.5-4.2
		C225.5,95.7,221.3,93.6,217.8,95.4 M184,95.9c-3,0.7-4.5,3.8-3.2,6.3c2.4,4.6,9.9,3.2,9.9-1.8C190.8,97.2,187.6,95.1,184,95.9
		 M224,97c2,2.3,1,5.2-2.1,6.1c-3.3,0.9-6.3-0.9-6.3-3.8C215.7,95.8,221.5,94.2,224,97 M187.6,96.9c2.6,1,3.5,3.8,1.8,5.7
		c-1.9,2.2-5.5,2.3-7.6,0.1C178.7,99.5,183.1,95.1,187.6,96.9 M226.3,142.9c0,0.6-0.5,2.1-1,3.2c-7.3,15-40.3,15-48,0
		c-2.2-4.2-1.5-5.5,1.5-3.2c10.4,7.9,34.7,7.7,45.4-0.5C225.9,141.2,226.3,141.2,226.3,142.9 M327.5,170.7
		c-2.3,0.8-9.2,2.9-10.4,3.2c-0.4,0.1-5.9,1.8-12.3,3.7c-12.1,3.7-15.8,4.7-20.4,6c-1.6,0.4-3.3,0.9-3.8,1.1s-2,0.6-3.2,1
		c-1.2,0.4-2.9,0.9-3.8,1.1c-0.8,0.3-2.7,0.8-4.2,1.2c-6.5,1.9-8.4,2.4-9.3,2.7c-0.5,0.2-2,0.6-3.2,0.9c-1.2,0.3-2.7,0.8-3.2,0.9
		c-0.5,0.2-2,0.6-3.2,1c-1.2,0.4-3.5,1-5.1,1.5c-1.6,0.5-3.9,1.1-5.1,1.5c-1.2,0.4-2.7,0.8-3.2,0.9c-0.5,0.2-2,0.6-3.2,1
		c-6,1.7-6.2,1.9-6.2,5c0,4.3,0.2,4.4,5.6,2.8c1.8-0.5,6.1-1.8,9.5-2.8c3.4-1,9.6-2.8,13.8-4.1c4.2-1.2,7.9-2.3,8.3-2.4
		c1.2-0.3,14.8-4.4,18.7-5.5c2-0.6,6.2-1.9,9.4-2.8s11.3-3.3,18-5.3c6.7-2,12.4-3.6,12.5-3.6c0.2,0,0.4,8.4,0.5,21.6
		c0.1,25-0.3,22.7,4.3,22.6l2.6-0.1l0.1-26.4C331.3,166.7,331.6,169.3,327.5,170.7 M330.8,196.7c0.1,18.5,0,25.6-0.3,26
		c-0.5,0.6-2.9,0.7-4.3,0.1l-1-0.4v-21.3c0-23.5,0.1-22.9-2.2-22.1c-0.9,0.3-19.7,5.8-44.3,13.1c-5.3,1.6-13.3,3.9-17.8,5.2
		c-37.1,11-32.5,10.1-32.5,6.5V201l2.7-0.8c1.5-0.4,4.4-1.3,6.3-1.9c2-0.6,7.8-2.3,12.8-3.8c5.1-1.5,10.3-3,11.5-3.4
		c1.2-0.4,3.7-1.1,5.5-1.6c5.5-1.6,39.7-11.8,50.8-15.1c5.8-1.8,11-3.2,11.5-3.1l0.9,0.1L330.8,196.7 M79.7,172.8
		c-0.4,1.1-0.4,51.7,0,53.6l0.2,1.1l3,0c4.4,0,4,2.2,4-23.5c0-19.7,0.1-22.1,0.6-22.3c0.6-0.2,2.5,0.3,9.4,2.3
		c1.9,0.6,4.2,1.2,5.1,1.5c0.9,0.3,3.2,0.9,5.1,1.5c1.9,0.6,4.8,1.4,6.4,1.9c1.7,0.5,4.1,1.2,5.5,1.6c1.4,0.4,5.1,1.5,8.3,2.5
		c3.2,1,12.5,3.7,20.6,6.1c39.9,11.9,35,10.9,35.3,6.7c0.2-2.7-0.3-4.2-1.3-4.2c-0.3,0-0.9-0.2-1.2-0.4c-0.4-0.2-1.7-0.6-2.9-1
		c-3.1-0.9-5.9-1.7-7-2c-0.5-0.2-2-0.6-3.2-1c-1.2-0.4-2.6-0.8-3-0.9c-0.4-0.2-1.9-0.6-3.2-0.9c-1.3-0.4-2.8-0.8-3.2-1
		c-1.5-0.6-4.7-1.5-5.3-1.5c-0.3,0-0.9-0.1-1.3-0.3c-0.4-0.2-1.7-0.6-2.9-1c-1.2-0.4-2.7-0.8-3.2-1c-0.5-0.2-2-0.6-3.2-0.9
		c-1.2-0.3-2.7-0.8-3.2-0.9c-0.5-0.2-2-0.6-3.2-0.9c-1.2-0.4-2.9-0.9-3.8-1.1c-0.8-0.3-3-0.9-4.9-1.5s-3.9-1.1-4.5-1.3
		c-0.6-0.2-3.2-0.9-5.7-1.7c-2.5-0.7-6-1.8-7.7-2.3c-1.8-0.6-3.6-1.1-4-1.2c-0.4-0.1-5.9-1.7-12.1-3.6
		C80.3,171.5,80.2,171.5,79.7,172.8 M85.6,173.9c2.5,0.7,6.2,1.8,8.3,2.4c9.1,2.7,58.1,17.2,65.2,19.3c4.3,1.3,10.3,3.1,13.4,4
		c3.1,0.9,6.6,2,7.7,2.4l2.1,0.7l0.1,2.6c0.1,3.4,0.1,3.4-4.3,2c-2.1-0.6-4.3-1.3-4.9-1.4c-0.6-0.2-4.4-1.3-8.3-2.4
		c-3.9-1.2-8.4-2.5-9.8-2.9s-4.5-1.3-6.8-2c-2.3-0.7-5.4-1.6-7-2.1c-6.2-1.8-9.4-2.7-11.5-3.4c-1.2-0.4-3.7-1.1-5.5-1.6
		c-13.3-3.9-24.6-7.3-30.3-9c-5.5-1.6-6.8-1.9-7.3-1.5c-0.5,0.4-0.6,3.2-0.6,22.1c0,11.9-0.2,22-0.3,22.5c-0.4,1.3-4.4,2-5.2,0.9
		c-0.7-0.9-0.7-52.6,0-53.3C81.1,172.5,80.3,172.4,85.6,173.9 M300.9,189c-9.3,2.8-24.6,7.3-33.8,10c-9.2,2.7-18.2,5.4-19.8,5.8
		c-1.7,0.5-4,1.2-5.3,1.5c-1.2,0.4-2.7,0.8-3.2,0.9c-0.5,0.2-2,0.6-3.2,1c-3,0.8-4.6,1.3-6.4,1.9c-0.8,0.3-3.2,0.9-5.3,1.5
		c-2.1,0.6-4.5,1.3-5.5,1.7l-1.7,0.7l-0.1,2.8c-0.1,4.1-0.2,4.1,4.7,2.7c10.6-3.1,18.7-5.5,25.2-7.4c2.4-0.7,5.3-1.5,6.2-1.8
		c2-0.6,7.9-2.4,12.2-3.6c1.6-0.5,3.6-1.1,4.5-1.4c0.9-0.3,2.5-0.8,3.6-1.1c1.9-0.5,14.7-4.3,17.9-5.3c13.2-4.1,21.3-6.3,21.6-5.8
		c0.2,0.3,0.3,6.7,0.3,14.3c0,7.6,0.1,14.5,0.3,15.3l0.3,1.5h2.5c4.1,0,3.7,1.8,3.7-20c0-10.4-0.1-19.3-0.2-19.6
		C319,183.7,319.2,183.6,300.9,189 M92,185.9c-0.6,0.3-0.6,2.3-0.6,20.5c0,23.4-0.4,21.4,3.9,21.3l2.7-0.1l0.2-16.4
		c0.1-9,0.2-16.5,0.3-16.5c0.3-0.3,2.8,0.4,16.1,4.3c8.1,2.4,15.3,4.5,15.9,4.7c2.3,0.7,21.4,6.4,24.2,7.2c0.6,0.2,2.9,0.9,5.1,1.5
		c4.2,1.2,9.6,2.9,11.5,3.4c0.6,0.2,2.9,0.9,5.1,1.5c2.2,0.7,5.3,1.6,7,2.1c1.7,0.5,4.7,1.4,6.7,2c4.4,1.3,4.4,1.3,4.4-2.7
		c0-3.1-1.1-3.8-9.6-5.9c-0.6-0.2-2.4-0.7-4-1.1c-1.6-0.5-3.6-1.1-4.5-1.3c-0.9-0.3-3.2-0.9-5.1-1.5c-1.9-0.6-4.8-1.4-6.6-2
		c-1.8-0.5-4.6-1.4-6.2-1.8c-7.8-2.3-16-4.7-35.9-10.5c-11.8-3.5-23.4-6.9-25.7-7.5C94,186,92.4,185.7,92,185.9 M304.1,202.1
		c-1.4,0.4-3.4,1-4.5,1.4c-1.1,0.3-3.4,1-4.9,1.5c-1.6,0.5-4,1.2-5.5,1.6c-1.5,0.4-4.1,1.2-5.9,1.7c-1.8,0.5-4.5,1.3-6,1.8
		c-1.6,0.4-3.3,1-3.8,1.1c-0.5,0.2-2,0.6-3.2,0.9c-1.2,0.3-2.7,0.8-3.2,0.9c-0.5,0.2-2,0.6-3.2,1c-1.2,0.4-3.5,1-5.1,1.5
		c-1.6,0.5-3.9,1.1-5.1,1.5c-1.2,0.4-2.7,0.8-3.2,0.9c-0.5,0.2-1.7,0.5-2.6,0.8c-0.9,0.3-2.4,0.7-3.2,0.9
		c-2.9,0.9-10.3,3.1-17.9,5.4c-1.8,0.5-3.9,1.2-4.7,1.4c-0.8,0.3-2.3,0.7-3.2,0.9c-0.9,0.3-2.4,0.7-3.2,1c-0.8,0.3-1.8,0.5-2.1,0.5
		c-1.9,0-1.8-3.2-1.8,57.5c0,31,0.2,56.6,0.3,56.9c0.3,0.5,1.1,0.3,8.2-1.9c2-0.6,6.3-1.9,9.6-2.9c1.8-0.5,4.1-1.2,5.1-1.5
		c1-0.3,2.4-0.7,3-0.9c0.6-0.2,2-0.6,3-0.9c1-0.3,3.4-1,5.3-1.6c1.9-0.5,4.3-1.3,5.3-1.6c1-0.3,2.4-0.7,3-0.9c0.6-0.2,3.4-1,6.2-1.9
		c2.8-0.9,6.4-1.9,7.9-2.3c1.6-0.4,3.1-0.9,3.5-1.1s1-0.4,1.3-0.4c0.4,0,1.9-0.4,3.3-0.9c1.5-0.5,2.9-0.9,3.3-0.9
		c0.4,0,1.2-0.2,1.9-0.5c1.3-0.5,4.7-1.6,9.7-2.9c1.6-0.4,3.1-0.9,3.5-1.1c0.4-0.2,0.9-0.4,1.3-0.4c0.7,0,4.1-1,5.2-1.6
		c0.4-0.2,0.9-0.3,1.2-0.3c0.8,0,5.2-1.5,5.8-2c0.4-0.3,0.5-4.3,0.5-17.7v-17.3l-0.9-0.5c-0.5-0.3-2.1-0.7-3.7-0.8
		c-10.7-0.9-12.9-5.3-4.7-9.1c4-1.8,4-2.3-0.4-3.4c-7.5-1.8-7.3-5,0.6-8.7c4-1.9,4.8-3.2,2-3.2c-0.4,0-2.2-0.3-4.1-0.7
		c-7.9-1.7-8.3-4.7-0.9-8.3c3.7-1.8,3.5-2.5-0.9-3.6c-9-2.3-5.1-7.5,8.1-10.8c1.7-0.4,3.4-1,3.9-1.3l0.9-0.6l-0.1-13.7l-0.1-13.7
		l-1.1-0.1C307,201.4,305.4,201.7,304.1,202.1 M307.6,202.3c0.7,0.3,0.9,25.1,0.3,26.1c-0.2,0.3-1.9,0.9-3.8,1.4
		c-14.3,3.8-18,9.6-8,12.7c2.1,0.6,2,1.2-0.2,2.3c-4,2-5.8,4.7-4.4,6.7c1.1,1.5,2.9,2.2,8.8,3.3c1.5,0.3,0.9,1.1-1.8,2.4
		c-3.1,1.5-5.2,3.6-5.2,5.2c0,1.1,2.5,3.8,3.5,3.8c0.8,0,3.7,1.2,3.7,1.5c0,0.2-0.9,0.8-2,1.5c-7.7,4.4-3.8,10.2,6.8,10.2
		c0.7,0,1.7,0.2,2.2,0.4l1,0.4v17c0,18.3,0.1,17.5-2.1,18c-0.6,0.1-2.4,0.6-4,1.1c-1.6,0.5-4.4,1.3-6.2,1.9c-3.4,1-4.7,1.4-10.2,3
		c-1.7,0.5-4.5,1.3-6.2,1.8c-1.8,0.5-4.7,1.4-6.6,2c-1.9,0.6-4.2,1.3-5.3,1.6c-1,0.3-2.4,0.7-3,0.9c-0.6,0.2-4.4,1.3-8.3,2.5
		c-3.9,1.2-8.2,2.4-9.4,2.8c-14.8,4.5-33.9,9.9-34.3,9.8c-0.5-0.2-0.6-5.4-0.6-56.1v-55.9l0.9-0.4c0.5-0.2,2.4-0.9,4.2-1.4
		c1.9-0.5,4.2-1.2,5.1-1.5c0.9-0.3,9.9-2.9,19.8-5.9c10-2.9,21.9-6.5,26.4-7.8c4.6-1.4,8.9-2.6,9.6-2.8c1.1-0.3,28.8-8.5,29-8.6
		C307,202.1,307.3,202.2,307.6,202.3 M102.4,203.3c-0.3,0.3-0.5,4.1-0.5,14.5c0,16.5-0.4,15.1,4.7,16.1c6.9,1.4,14.1,4.6,15.8,7.1
		c1.8,2.6-0.1,4.3-6.6,5.9c-4.3,1.1-4.3,1.2-0.1,3.4c7.9,4.2,6,8.3-4.5,9.6c-3.4,0.4-2.9,1.4,1.9,3.7c9,4.4,8.5,7.9-1.6,10
		c-3.1,0.7-2.7,1.7,1.2,3.7c7.9,4,4.5,8.5-7,9.5c-4.1,0.4-3.8-1-3.8,15.1v14.1l0.8,0.6c0.8,0.5,2.7,1.2,9.2,3
		c1.9,0.5,4.2,1.2,5.1,1.5c0.9,0.3,2.5,0.7,3.4,1c0.9,0.3,2.3,0.7,2.9,1c0.7,0.3,1.5,0.5,1.8,0.5c0.3,0,1.9,0.4,3.5,0.9
		c1.6,0.5,4.4,1.3,6.1,1.8c6.8,2,10.1,3,11.9,3.5c1,0.3,3.2,1,4.9,1.5c1.7,0.5,4.5,1.3,6.2,1.8c1.8,0.5,4.7,1.4,6.4,1.9
		s5.8,1.7,9.1,2.7c3.2,0.9,8.7,2.6,12.3,3.6c9.8,3,13,3.8,13.4,3.6c0.6-0.4,0.5-113.3-0.1-113.8c-0.5-0.4-2.9-1.2-5.9-2
		c-0.9-0.3-2.4-0.7-3.2-1c-2.2-0.7-7.4-2.2-11.5-3.4c-2-0.6-3.9-1.1-4.3-1.3c-0.4-0.2-1.5-0.5-2.5-0.8c-0.9-0.2-2.4-0.7-3.2-0.9
		c-0.8-0.3-2.5-0.8-3.8-1.1c-1.2-0.4-2.9-0.9-3.8-1.1c-0.8-0.3-2.3-0.7-3.2-0.9s-2.1-0.6-2.6-0.8c-1.3-0.4-8-2.4-10.8-3.2
		c-1.2-0.4-2.7-0.8-3.2-1c-0.5-0.2-2-0.6-3.2-0.9c-1.2-0.3-2.7-0.8-3.2-0.9c-0.5-0.2-2-0.6-3.2-1c-1.2-0.4-3.3-1-4.5-1.3
		c-2.2-0.7-4.9-1.5-10.6-3.1c-1.5-0.4-3.3-1-4.2-1.2c-0.8-0.3-2.5-0.8-3.8-1.1c-1.2-0.4-2.8-0.8-3.4-1
		C103.4,202.7,103,202.7,102.4,203.3 M115.3,207.2c6.1,1.8,13.6,4,16.7,4.9s8.9,2.6,12.8,3.8c3.9,1.2,13,3.8,20,5.9
		c7.1,2.1,16.8,5,21.7,6.4c4.9,1.5,9.6,2.8,10.4,3.1c0.8,0.2,1.6,0.6,1.8,0.8c0.4,0.7,0.4,111.9-0.1,112.2c-0.2,0.1-2.1-0.3-4.2-0.9
		c-2.1-0.7-5.1-1.5-6.5-2c-1.5-0.4-3.1-0.9-3.6-1.1c-0.5-0.2-2-0.6-3.2-0.9c-1.2-0.3-2.7-0.8-3.2-1c-0.5-0.2-4.2-1.3-8.1-2.4
		c-3.9-1.2-8.5-2.5-10.2-3c-2.9-0.9-11.4-3.4-15.7-4.6c-1.1-0.3-2.5-0.7-3-0.9c-1.4-0.5-12.4-3.7-16.2-4.8c-1.1-0.3-3.4-1-5.1-1.5
		c-1.7-0.5-3.9-1.1-4.9-1.5c-1-0.3-3.2-1-4.9-1.5c-1.7-0.5-3.5-1-4.2-1.2c-0.6-0.1-1.5-0.5-2-0.8l-0.8-0.5v-13.6
		c0-15.6-0.4-14.1,4-14.5c11.6-1.2,14.8-6.3,6.7-10.8c-3-1.7-3-1.8,1.9-3.1c7-2,6.6-6.3-1-10.4c-3.4-1.8-3.4-2,0.7-3
		c8-2,8.7-6.7,1.6-10.4c-1.4-0.7-1.9-1.6-0.9-1.9c5.1-1.3,8.2-3.1,8.2-4.8c0-2.5-3.3-5.7-7.3-7.2c-4.3-1.6-5.1-1.9-8.8-2.7
		c-2.1-0.5-4.1-1.1-4.5-1.4c-0.6-0.5-0.9-27.1-0.3-27.7C103.5,203.8,104.3,203.9,115.3,207.2 M322,228c-17.5,2.5-26.5,9.9-16.6,13.5
		l2.2,0.8l-1.8,1.2c-5.3,3.7-4.8,7.5,1.3,9.1c3.2,0.9,3.3,1,0.8,2.6c-5.1,3.2-5.2,6.3-0.3,8.4c2.3,1,2.6,1.6,1,2.4
		c-4.1,2.1-4.9,5.7-1.5,7.9c2.8,1.8,14.1,2.8,19.4,1.8c1.2-0.3,3-0.6,4-0.8c0.9-0.2,3.5-0.9,5.8-1.7c9.8-3.3,12.1-7.9,5.5-10.8
		c-2-0.9-2-1.3-0.1-2.6c4.3-2.9,4.1-6.5-0.5-8.2c-4.7-1.7-4.6-1.5-1.8-3.2c5-3,4.9-6.5-0.4-8.5c-2-0.8-2-1.2,0.6-3.1
		c4.3-3.2,3.7-5.9-1.8-7.9C335.3,228.1,325.6,227.5,322,228 M79.3,232.9c-9.2,1.3-12.1,5.2-6.5,9c2.1,1.4,2,1.6-0.7,2.6
		c-5.9,2.2-5.7,5.7,0.7,9.4c1.9,1.1,1.7,1.3-2.6,2.5c-4.1,1.1-4.8,4.9-1.3,7.4c2.4,1.7,2.3,2-0.1,3c-8.4,3.1-3.3,9.6,9.7,12.6
		c1.6,0.4,3.6,0.8,4.6,1c2.9,0.6,14.1,0.5,16.4-0.2c6.2-1.9,7.3-4.3,3.5-7.9c-2.6-2.4-2.6-2.7-0.2-3.1c5.5-0.8,6.1-5.7,1-8.8
		c-2.5-1.5-2.5-2-0.5-2.6c6.1-1.8,7.2-5.3,2.5-8.5c-2-1.4-2-1.7,0-2.3c12-3.5,0.7-12.7-17.3-14.1c-1.7-0.1-3.6-0.3-4.3-0.4
		C83.5,232.4,81.3,232.6,79.3,232.9 M331.8,277.4c-0.2,0.1-1.1,0.3-2.1,0.6c-2.7,0.8-2.6,0.7-2.6,9.8c0,7,0.1,8.3,0.6,8.8
		c0.7,0.7,0.4,0.7,2.9,0.1c3.9-1,3.6-0.2,3.6-10C334.3,277.2,334.2,276.7,331.8,277.4 M333.7,279c0.3,0.9,0.3,15-0.1,15.5
		c-0.9,1.4-5.2,2-5.5,0.8c-0.5-1.7-0.3-14.8,0.2-15.5C329.3,278.5,333.3,277.9,333.7,279 M316.1,280.9c-0.2,0.6-0.4,5.9-0.4,12.4
		c0,12.4,0.1,13,1.9,12.6c3.2-0.8,4-1.1,4.4-1.6c0.6-0.8,0.7-22.4,0.1-23.6C321.5,279.4,316.6,279.5,316.1,280.9 M77.3,282.2
		c-0.9,0.6-1,9.8-0.1,10.6c0.8,0.6,4.2,1.9,5.3,1.9c1.2,0,1.3-0.6,1.3-6c0-5.5-0.1-5.8-2.8-6.2c-0.8-0.1-1.9-0.3-2.3-0.4
		C78.3,281.9,77.7,282,77.3,282.2 M82.6,283.9c0.7,0.9,0.7,8.9,0,9.5c-0.4,0.3-1,0.3-2.3-0.1c-2.9-0.9-2.9-0.8-2.9-5.9v-4.5l2.4,0.3
		C81.3,283.2,82.3,283.6,82.6,283.9 M88.8,285.1c-0.7,1.4-0.5,19.8,0.3,20.7c1,1.1,4.8,2.2,5.6,1.6c0.9-0.7,0.9-21.6,0-22.5
		C93.7,284.1,89.3,284.2,88.8,285.1"/>
</g>
</svg>
